0
SECTION
2
HEADER
9
$INSUNITS
70
4
9
$ACADVER
1
AC1014
9
$HANDSEED
5
FFFF
0
ENDSEC
0
SECTION
2
TABLES
0
TABLE
2
VPORT
5
8
100
AcDbSymbolTable
0
ENDTAB
0
TABLE
2
LTYPE
5
5
100
AcDbSymbolTable
0
LTYPE
5
14
100
AcDbSymbolTableRecord
100
AcDbLinetypeTableRecord
2
BYBLOCK
70
0
0
LTYPE
5
15
100
AcDbSymbolTableRecord
100
AcDbLinetypeTableRecord
2
BYLAYER
70
0
0
ENDTAB
0
TABLE
2
LAYER
5
2
100
AcDbSymbolTable
70
2
0
LAYER
5
50
100
AcDbSymbolTableRecord
100
AcDbLayerTableRecord
2
0
70
0
6
CONTINUOUS
0
ENDTAB
0
TABLE
2
STYLE
5
3
100
AcDbSymbolTable
70
1
0
STYLE
5
11
100
AcDbSymbolTableRecord
100
AcDbTextStyleTableRecord
2
STANDARD
70
0
0
ENDTAB
0
TABLE
2
VIEW
5
6
100
AcDbSymbolTable
70
0
0
ENDTAB
0
TABLE
2
UCS
5
7
100
AcDbSymbolTable
70
0
0
ENDTAB
0
TABLE
2
APPID
5
9
100
AcDbSymbolTable
70
2
0
APPID
5
12
100
AcDbSymbolTableRecord
100
AcDbRegAppTableRecord
2
ACAD
70
0
0
ENDTAB
0
TABLE
2
DIMSTYLE
5
A
100
AcDbSymbolTable
70
1
0
ENDTAB
0
TABLE
2
BLOCK_RECORD
5
1
100
AcDbSymbolTable
70
1
0
BLOCK_RECORD
5
1F
100
AcDbSymbolTableRecord
100
AcDbBlockTableRecord
2
*MODEL_SPACE
0
BLOCK_RECORD
5
1B
100
AcDbSymbolTableRecord
100
AcDbBlockTableRecord
2
*PAPER_SPACE
0
ENDTAB
0
ENDSEC
0
SECTION
2
BLOCKS
0
BLOCK
5
20
100
AcDbEntity
100
AcDbBlockBegin
2
*MODEL_SPACE
0
ENDBLK
5
21
100
AcDbEntity
100
AcDbBlockEnd
0
BLOCK
5
1C
100
AcDbEntity
100
AcDbBlockBegin
2
*PAPER_SPACE
0
ENDBLK
5
1D
100
AcDbEntity
100
AcDbBlockEnd
0
ENDSEC
0
SECTION
2
ENTITIES
0
ARC
5
100
100
AcDbEntity
8
0
100
AcDbCircle
10
-300
20
0
30
0
40
160
210
0
220
0
230
1
100
AcDbArc
50
0
51
90
0
CIRCLE
5
101
100
AcDbEntity
8
0
100
AcDbCircle
10
-224.99999999999989
20
105.00000000000031
30
0
40
1.4999999999999982
210
0
220
0
230
1
0
CIRCLE
5
102
100
AcDbEntity
8
0
100
AcDbCircle
10
-194.99999999999886
20
25.000000000000338
30
0
40
1.4999999999999982
210
0
220
0
230
1
0
CIRCLE
5
103
100
AcDbEntity
8
0
100
AcDbCircle
10
-194.99999999999986
20
75.000000000000085
30
0
40
1.4999999999999982
210
0
220
0
230
1
0
CIRCLE
5
104
100
AcDbEntity
8
0
100
AcDbCircle
10
-274.99999999999994
20
105.00000000000013
30
0
40
1.4999999999999982
210
0
220
0
230
1
0
CIRCLE
5
105
100
AcDbEntity
8
0
100
AcDbCircle
10
-244.99999999999946
20
25.000000000000149
30
0
40
1.4999999999999982
210
0
220
0
230
1
0
CIRCLE
5
106
100
AcDbEntity
8
0
100
AcDbCircle
10
-244.99999999999946
20
25.000000000000149
30
0
40
1.4999999999999982
210
0
220
0
230
1
0
CIRCLE
5
107
100
AcDbEntity
8
0
100
AcDbCircle
10
-275
20
55.000000000000156
30
0
40
1.4999999999999982
210
0
220
0
230
1
0
CIRCLE
5
108
100
AcDbEntity
8
0
100
AcDbCircle
10
-275
20
55.000000000000156
30
0
40
1.4999999999999982
210
0
220
0
230
1
0
LINE
5
109
100
AcDbEntity
8
0
100
AcDbLine
10
-290.00000432133675
20
30.000000447034836
30
0
11
-288.50000432133675
21
30.000000447034836
31
0
0
LINE
5
110
100
AcDbEntity
8
0
100
AcDbLine
10
-288.50000432133675
20
30.000000447034836
30
0
11
-288.50000432133675
21
10.000000149011612
31
0
0
LINE
5
111
100
AcDbEntity
8
0
100
AcDbLine
10
-288.50000432133675
20
10.000000149011612
30
0
11
-290.00000432133675
21
10.000000149011612
31
0
0
LWPOLYLINE
5
112
100
AcDbEntity
8
0
100
AcDbPolyline
90
4
70
1
43
0.0
10
-288.50000432133675
20
10.000000149011612
10
-288.50000432133675
20
30.000000447034836
10
-290.00000432133675
20
30.000000447034836
10
-290.00000432133675
20
10.000000149011612
0
LWPOLYLINE
5
113
100
AcDbEntity
8
0
100
AcDbPolyline
90
4
70
1
43
0.0
10
-283.50000432133675
20
10.000000149011612
10
-283.50000432133675
20
30.000000447034836
10
-285.00000432133675
20
30.000000447034836
10
-285.00000432133675
20
10.000000149011612
0
LWPOLYLINE
5
114
100
AcDbEntity
8
0
100
AcDbPolyline
90
4
70
1
43
0.0
10
-273.50000432133675
20
10.000000149011612
10
-273.50000432133675
20
30.000000447034836
10
-275.00000432133675
20
30.000000447034836
10
-275.00000432133675
20
10.000000149011612
0
LWPOLYLINE
5
115
100
AcDbEntity
8
0
100
AcDbPolyline
90
4
70
1
43
0.0
10
-278.50000432133675
20
30.000000447034836
10
-280.00000432133675
20
30.000000447034836
10
-280.00000432133675
20
10.000000149011612
10
-278.50000432133675
20
10.000000149011612
0
LWPOLYLINE
5
116
100
AcDbEntity
8
0
100
AcDbPolyline
90
4
70
1
43
0.0
10
-280.00000432133675
20
10.000000149011612
10
-278.50000432133675
20
10.000000149011612
10
-278.50000432133675
20
30.000000447034836
10
-280.00000432133675
20
30.000000447034836
0
LWPOLYLINE
5
117
100
AcDbEntity
8
0
100
AcDbPolyline
90
4
70
1
43
0.0
10
-270.00000432133675
20
10.000000149011612
10
-268.50000432133675
20
10.000000149011612
10
-268.50000432133675
20
30.000000447034836
10
-270.00000432133675
20
30.000000447034836
0
LWPOLYLINE
5
118
100
AcDbEntity
8
0
100
AcDbPolyline
90
4
70
1
43
0.0
10
-270.00000432133675
20
10.000000149011612
10
-268.50000432133675
20
10.000000149011612
10
-268.50000432133675
20
30.000000447034836
10
-270.00000432133675
20
30.000000447034836
0
LWPOLYLINE
5
119
100
AcDbEntity
8
0
100
AcDbPolyline
90
4
70
1
43
0.0
10
-263.50000432133675
20
10.000000149011612
10
-263.50000432133675
20
30.000000447034836
10
-265.00000432133675
20
30.000000447034836
10
-265.00000432133675
20
10.000000149011612
0
LWPOLYLINE
5
120
100
AcDbEntity
8
0
100
AcDbPolyline
90
4
70
1
43
0.0
10
-260.00000432133675
20
10.000000149011612
10
-258.50000432133675
20
10.000000149011612
10
-258.50000432133675
20
30.000000447034836
10
-260.00000432133675
20
30.000000447034836
0
LWPOLYLINE
5
121
100
AcDbEntity
8
0
100
AcDbPolyline
90
4
70
1
43
0.0
10
-260.00000432133675
20
10.000000149011612
10
-258.50000432133675
20
10.000000149011612
10
-258.50000432133675
20
30.000000447034836
10
-260.00000432133675
20
30.000000447034836
0
LWPOLYLINE
5
122
100
AcDbEntity
8
0
100
AcDbPolyline
90
4
70
1
43
0.0
10
-253.50000432133675
20
10.000000149011612
10
-253.50000432133675
20
30.000000447034836
10
-255.00000432133675
20
30.000000447034836
10
-255.00000432133675
20
10.000000149011612
0
LWPOLYLINE
5
123
100
AcDbEntity
8
0
100
AcDbPolyline
90
4
70
1
43
0.0
10
-250.00000432133675
20
10.000000149011612
10
-248.50000432133675
20
10.000000149011612
10
-248.50000432133675
20
30.000000447034836
10
-250.00000432133675
20
30.000000447034836
0
LWPOLYLINE
5
124
100
AcDbEntity
8
0
100
AcDbPolyline
90
4
70
1
43
0.0
10
-250.00000432133675
20
10.000000149011612
10
-248.50000432133675
20
10.000000149011612
10
-248.50000432133675
20
30.000000447034836
10
-250.00000432133675
20
30.000000447034836
0
LWPOLYLINE
5
125
100
AcDbEntity
8
0
100
AcDbPolyline
90
4
70
1
43
0.0
10
-245.00000432133675
20
10.000000149011612
10
-243.50000432133675
20
10.000000149011612
10
-243.50000432133675
20
22.033815022200724
10
-245.00000432133675
20
22.033815022200724
0
LWPOLYLINE
5
126
100
AcDbEntity
8
0
100
AcDbPolyline
90
4
70
1
43
0.0
10
-243.50000432133675
20
30.000000447034836
10
-245.00000432133675
20
30.000000447034836
10
-245.00000432133675
20
27.982203222589199
10
-243.50000432133675
20
27.982203222589199
0
LWPOLYLINE
5
127
100
AcDbEntity
8
0
100
AcDbPolyline
90
4
70
1
43
0.0
10
-193.50000432133675
20
30.000000447034836
10
-195.00000432133675
20
30.000000447034836
10
-195.00000432133675
20
27.994712674473192
10
-193.50000432133675
20
27.994712674473192
0
LINE
5
128
100
AcDbEntity
8
0
100
AcDbLine
10
-208.50000432133675
20
30.000000447034836
30
0
11
-208.50000432133675
21
10.000000149011612
31
0
0
LWPOLYLINE
5
129
100
AcDbEntity
8
0
100
AcDbPolyline
90
4
70
1
43
0.0
10
-195.00000432133675
20
10.000000149011612
10
-193.50000432133675
20
10.000000149011612
10
-193.50000432133675
20
22.027048340365596
10
-195.00000432133675
20
22.027048340365596
0
LINE
5
130
100
AcDbEntity
8
0
100
AcDbLine
10
-210.00000432133675
20
10.000000149011612
30
0
11
-210.00000432133675
21
30.000000447034836
31
0
0
LINE
5
131
100
AcDbEntity
8
0
100
AcDbLine
10
-210.00000432133675
20
30.000000447034836
30
0
11
-208.50000432133675
21
30.000000447034836
31
0
0
LINE
5
132
100
AcDbEntity
8
0
100
AcDbLine
10
-200.00000432133675
20
30.000000447034836
30
0
11
-198.50000432133675
21
30.000000447034836
31
0
0
LWPOLYLINE
5
133
100
AcDbEntity
8
0
100
AcDbPolyline
90
4
70
1
43
0.0
10
-203.50000432133675
20
30.000000447034836
10
-205.00000432133675
20
30.000000447034836
10
-205.00000432133675
20
10.000000149011612
10
-203.50000432133675
20
10.000000149011612
0
LINE
5
134
100
AcDbEntity
8
0
100
AcDbLine
10
-210.00000432133675
20
10.000000149011612
30
0
11
-210.00000432133675
21
30.000000447034836
31
0
0
LINE
5
135
100
AcDbEntity
8
0
100
AcDbLine
10
-200.00000432133675
20
30.000000447034836
30
0
11
-198.50000432133675
21
30.000000447034836
31
0
0
LINE
5
136
100
AcDbEntity
8
0
100
AcDbLine
10
-208.50000432133675
20
30.000000447034836
30
0
11
-208.50000432133675
21
10.000000149011612
31
0
0
LINE
5
137
100
AcDbEntity
8
0
100
AcDbLine
10
-210.00000432133675
20
30.000000447034836
30
0
11
-208.50000432133675
21
30.000000447034836
31
0
0
LINE
5
138
100
AcDbEntity
8
0
100
AcDbLine
10
-200.00000432133675
20
10.000000149011612
30
0
11
-200.00000432133675
21
30.000000447034836
31
0
0
LINE
5
139
100
AcDbEntity
8
0
100
AcDbLine
10
-198.50000432133675
20
10.000000149011612
30
0
11
-200.00000432133675
21
10.000000149011612
31
0
0
LINE
5
140
100
AcDbEntity
8
0
100
AcDbLine
10
-208.50000432133675
20
10.000000149011612
30
0
11
-210.00000432133675
21
10.000000149011612
31
0
0
LWPOLYLINE
5
141
100
AcDbEntity
8
0
100
AcDbPolyline
90
4
70
1
43
0.0
10
-218.50000432133675
20
10.000000149011612
10
-218.50000432133675
20
30.000000447034836
10
-220.00000432133675
20
30.000000447034836
10
-220.00000432133675
20
10.000000149011612
0
LINE
5
142
100
AcDbEntity
8
0
100
AcDbLine
10
-208.50000432133675
20
10.000000149011612
30
0
11
-210.00000432133675
21
10.000000149011612
31
0
0
LINE
5
143
100
AcDbEntity
8
0
100
AcDbLine
10
-198.50000432133675
20
30.000000447034836
30
0
11
-198.50000432133675
21
10.000000149011612
31
0
0
LINE
5
144
100
AcDbEntity
8
0
100
AcDbLine
10
-198.50000432133675
20
10.000000149011612
30
0
11
-200.00000432133675
21
10.000000149011612
31
0
0
LINE
5
145
100
AcDbEntity
8
0
100
AcDbLine
10
-228.50000432133675
20
30.000000447034836
30
0
11
-228.50000432133675
21
10.000000149011612
31
0
0
LINE
5
146
100
AcDbEntity
8
0
100
AcDbLine
10
-198.50000432133675
20
30.000000447034836
30
0
11
-198.50000432133675
21
10.000000149011612
31
0
0
LWPOLYLINE
5
147
100
AcDbEntity
8
0
100
AcDbPolyline
90
4
70
1
43
0.0
10
-240.00000432133675
20
30.000000447034836
10
-240.00000432133675
20
10.000000149011612
10
-238.50000432133675
20
10.000000149011612
10
-238.50000432133675
20
30.000000447034836
0
LINE
5
148
100
AcDbEntity
8
0
100
AcDbLine
10
-200.00000432133675
20
10.000000149011612
30
0
11
-200.00000432133675
21
30.000000447034836
31
0
0
LWPOLYLINE
5
149
100
AcDbEntity
8
0
100
AcDbPolyline
90
4
70
1
43
0.0
10
-240.00000432133675
20
30.000000447034836
10
-240.00000432133675
20
10.000000149011612
10
-238.50000432133675
20
10.000000149011612
10
-238.50000432133675
20
30.000000447034836
0
LWPOLYLINE
5
150
100
AcDbEntity
8
0
100
AcDbPolyline
90
4
70
1
43
0.0
10
-223.50000432133675
20
10.000000149011612
10
-223.50000432133675
20
30.000000447034836
10
-225.00000432133675
20
30.000000447034836
10
-225.00000432133675
20
10.000000149011612
0
LINE
5
151
100
AcDbEntity
8
0
100
AcDbLine
10
-230.00000432133675
20
10.000000149011612
30
0
11
-230.00000432133675
21
30.000000447034836
31
0
0
LWPOLYLINE
5
152
100
AcDbEntity
8
0
100
AcDbPolyline
90
4
70
1
43
0.0
10
-233.50000432133675
20
30.000000447034836
10
-235.00000432133675
20
30.000000447034836
10
-235.00000432133675
20
10.000000149011612
10
-233.50000432133675
20
10.000000149011612
0
LINE
5
153
100
AcDbEntity
8
0
100
AcDbLine
10
-228.50000432133675
20
30.000000447034836
30
0
11
-228.50000432133675
21
10.000000149011612
31
0
0
LINE
5
154
100
AcDbEntity
8
0
100
AcDbLine
10
-230.00000432133675
20
30.000000447034836
30
0
11
-228.50000432133675
21
30.000000447034836
31
0
0
LINE
5
155
100
AcDbEntity
8
0
100
AcDbLine
10
-230.00000432133675
20
10.000000149011612
30
0
11
-230.00000432133675
21
30.000000447034836
31
0
0
LWPOLYLINE
5
156
100
AcDbEntity
8
0
100
AcDbPolyline
90
4
70
1
43
0.0
10
-215.00000432133675
20
30.000000447034836
10
-215.00000432133675
20
10.000000149011612
10
-213.50000432133675
20
10.000000149011612
10
-213.50000432133675
20
30.000000447034836
0
LWPOLYLINE
5
157
100
AcDbEntity
8
0
100
AcDbPolyline
90
4
70
1
43
0.0
10
-218.50000432133675
20
10.000000149011612
10
-218.50000432133675
20
30.000000447034836
10
-220.00000432133675
20
30.000000447034836
10
-220.00000432133675
20
10.000000149011612
0
LINE
5
158
100
AcDbEntity
8
0
100
AcDbLine
10
-230.00000432133675
20
30.000000447034836
30
0
11
-228.50000432133675
21
30.000000447034836
31
0
0
LINE
5
159
100
AcDbEntity
8
0
100
AcDbLine
10
-228.50000432133675
20
10.000000149011612
30
0
11
-230.00000432133675
21
10.000000149011612
31
0
0
LINE
5
160
100
AcDbEntity
8
0
100
AcDbLine
10
-228.50000432133675
20
10.000000149011612
30
0
11
-230.00000432133675
21
10.000000149011612
31
0
0
LINE
5
161
100
AcDbEntity
8
0
100
AcDbLine
10
-158.50000432133675
20
30.000000447034836
30
0
11
-158.50000432133675
21
10.000000149011612
31
0
0
LINE
5
162
100
AcDbEntity
8
0
100
AcDbLine
10
-160.00000432133675
20
10.000000149011612
30
0
11
-160.00000432133675
21
30.000000447034836
31
0
0
LINE
5
163
100
AcDbEntity
8
0
100
AcDbLine
10
-160.00000432133675
20
30.000000447034836
30
0
11
-158.50000432133675
21
30.000000447034836
31
0
0
LWPOLYLINE
5
164
100
AcDbEntity
8
0
100
AcDbPolyline
90
4
70
1
43
0.0
10
-153.50000432133675
20
30.000000447034836
10
-155.00000432133675
20
30.000000447034836
10
-155.00000432133675
20
10.000000149011612
10
-153.50000432133675
20
10.000000149011612
0
LINE
5
165
100
AcDbEntity
8
0
100
AcDbLine
10
-160.00000432133675
20
10.000000149011612
30
0
11
-160.00000432133675
21
30.000000447034836
31
0
0
LINE
5
166
100
AcDbEntity
8
0
100
AcDbLine
10
-158.50000432133675
20
30.000000447034836
30
0
11
-158.50000432133675
21
10.000000149011612
31
0
0
LINE
5
167
100
AcDbEntity
8
0
100
AcDbLine
10
-160.00000432133675
20
30.000000447034836
30
0
11
-158.50000432133675
21
30.000000447034836
31
0
0
LINE
5
168
100
AcDbEntity
8
0
100
AcDbLine
10
-158.50000432133675
20
10.000000149011612
30
0
11
-160.00000432133675
21
10.000000149011612
31
0
0
LWPOLYLINE
5
169
100
AcDbEntity
8
0
100
AcDbPolyline
90
4
70
1
43
0.0
10
-168.50000432133675
20
10.000000149011612
10
-168.50000432133675
20
30.000000447034836
10
-170.00000432133675
20
30.000000447034836
10
-170.00000432133675
20
10.000000149011612
0
LINE
5
170
100
AcDbEntity
8
0
100
AcDbLine
10
-158.50000432133675
20
10.000000149011612
30
0
11
-160.00000432133675
21
10.000000149011612
31
0
0
LINE
5
171
100
AcDbEntity
8
0
100
AcDbLine
10
-178.50000432133675
20
30.000000447034836
30
0
11
-178.50000432133675
21
10.000000149011612
31
0
0
LWPOLYLINE
5
172
100
AcDbEntity
8
0
100
AcDbPolyline
90
4
70
1
43
0.0
10
-190.00000432133675
20
30.000000447034836
10
-190.00000432133675
20
10.000000149011612
10
-188.50000432133675
20
10.000000149011612
10
-188.50000432133675
20
30.000000447034836
0
LWPOLYLINE
5
173
100
AcDbEntity
8
0
100
AcDbPolyline
90
4
70
1
43
0.0
10
-190.00000432133675
20
30.000000447034836
10
-190.00000432133675
20
10.000000149011612
10
-188.50000432133675
20
10.000000149011612
10
-188.50000432133675
20
30.000000447034836
0
LWPOLYLINE
5
174
100
AcDbEntity
8
0
100
AcDbPolyline
90
4
70
1
43
0.0
10
-173.50000432133675
20
10.000000149011612
10
-173.50000432133675
20
30.000000447034836
10
-175.00000432133675
20
30.000000447034836
10
-175.00000432133675
20
10.000000149011612
0
LINE
5
175
100
AcDbEntity
8
0
100
AcDbLine
10
-180.00000432133675
20
10.000000149011612
30
0
11
-180.00000432133675
21
30.000000447034836
31
0
0
LWPOLYLINE
5
176
100
AcDbEntity
8
0
100
AcDbPolyline
90
4
70
1
43
0.0
10
-183.50000432133675
20
30.000000447034836
10
-185.00000432133675
20
30.000000447034836
10
-185.00000432133675
20
10.000000149011612
10
-183.50000432133675
20
10.000000149011612
0
LINE
5
177
100
AcDbEntity
8
0
100
AcDbLine
10
-178.50000432133675
20
30.000000447034836
30
0
11
-178.50000432133675
21
10.000000149011612
31
0
0
LINE
5
178
100
AcDbEntity
8
0
100
AcDbLine
10
-180.00000432133675
20
30.000000447034836
30
0
11
-178.50000432133675
21
30.000000447034836
31
0
0
LINE
5
179
100
AcDbEntity
8
0
100
AcDbLine
10
-180.00000432133675
20
10.000000149011612
30
0
11
-180.00000432133675
21
30.000000447034836
31
0
0
LWPOLYLINE
5
180
100
AcDbEntity
8
0
100
AcDbPolyline
90
4
70
1
43
0.0
10
-165.00000432133675
20
30.000000447034836
10
-165.00000432133675
20
10.000000149011612
10
-163.50000432133675
20
10.000000149011612
10
-163.50000432133675
20
30.000000447034836
0
LWPOLYLINE
5
181
100
AcDbEntity
8
0
100
AcDbPolyline
90
4
70
1
43
0.0
10
-168.50000432133675
20
10.000000149011612
10
-168.50000432133675
20
30.000000447034836
10
-170.00000432133675
20
30.000000447034836
10
-170.00000432133675
20
10.000000149011612
0
LINE
5
182
100
AcDbEntity
8
0
100
AcDbLine
10
-180.00000432133675
20
30.000000447034836
30
0
11
-178.50000432133675
21
30.000000447034836
31
0
0
LINE
5
183
100
AcDbEntity
8
0
100
AcDbLine
10
-178.50000432133675
20
10.000000149011612
30
0
11
-180.00000432133675
21
10.000000149011612
31
0
0
LINE
5
184
100
AcDbEntity
8
0
100
AcDbLine
10
-178.50000432133675
20
10.000000149011612
30
0
11
-180.00000432133675
21
10.000000149011612
31
0
0
LWPOLYLINE
5
185
100
AcDbEntity
8
0
100
AcDbPolyline
90
4
70
1
43
0.0
10
-243.50000432133675
20
55.000000447034836
10
-245.00000432133675
20
55.000000447034836
10
-245.00000432133675
20
35.000000149011612
10
-243.50000432133675
20
35.000000149011612
0
LWPOLYLINE
5
186
100
AcDbEntity
8
0
100
AcDbPolyline
90
4
70
1
43
0.0
10
-258.50000432133675
20
35.000000149011612
10
-258.50000432133675
20
55.000000447034836
10
-260.00000432133675
20
55.000000447034836
10
-260.00000432133675
20
35.000000149011612
0
LWPOLYLINE
5
187
100
AcDbEntity
8
0
100
AcDbPolyline
90
4
70
1
43
0.0
10
-260.00000432133675
20
55.000000447034836
10
-260.00000432133675
20
35.000000149011612
10
-258.50000432133675
20
35.000000149011612
10
-258.50000432133675
20
55.000000447034836
0
LWPOLYLINE
5
188
100
AcDbEntity
8
0
100
AcDbPolyline
90
4
70
1
43
0.0
10
-248.50000432133675
20
55.000000447034836
10
-250.00000432133675
20
55.000000447034836
10
-250.00000432133675
20
35.000000149011612
10
-248.50000432133675
20
35.000000149011612
0
LWPOLYLINE
5
189
100
AcDbEntity
8
0
100
AcDbPolyline
90
4
70
1
43
0.0
10
-253.50000432133675
20
55.000000447034836
10
-255.00000432133675
20
55.000000447034836
10
-255.00000432133675
20
35.000000149011612
10
-253.50000432133675
20
35.000000149011612
0
LWPOLYLINE
5
190
100
AcDbEntity
8
0
100
AcDbPolyline
90
4
70
1
43
0.0
10
-248.50000432133675
20
55.000000447034836
10
-250.00000432133675
20
55.000000447034836
10
-250.00000432133675
20
35.000000149011612
10
-248.50000432133675
20
35.000000149011612
0
LWPOLYLINE
5
191
100
AcDbEntity
8
0
100
AcDbPolyline
90
4
70
1
43
0.0
10
-268.50000432133675
20
35.000000149011612
10
-268.50000432133675
20
55.000000447034836
10
-270.00000432133675
20
55.000000447034836
10
-270.00000432133675
20
35.000000149011612
0
LWPOLYLINE
5
192
100
AcDbEntity
8
0
100
AcDbPolyline
90
4
70
1
43
0.0
10
-278.50000432133675
20
35.000000149011612
10
-278.50000432133675
20
55.000000447034836
10
-280.00000432133675
20
55.000000447034836
10
-280.00000432133675
20
35.000000149011612
0
LINE
5
193
100
AcDbEntity
8
0
100
AcDbLine
10
-290.00000432133675
20
35.000000149011612
30
0
11
-290.00000432133675
21
55.000000447034836
31
0
0
LINE
5
194
100
AcDbEntity
8
0
100
AcDbLine
10
-290.00000432133675
20
35.000000149011612
30
0
11
-290.00000432133675
21
55.000000447034836
31
0
0
LWPOLYLINE
5
195
100
AcDbEntity
8
0
100
AcDbPolyline
90
4
70
1
43
0.0
10
-280.00000432133675
20
55.000000447034836
10
-280.00000432133675
20
35.000000149011612
10
-278.50000432133675
20
35.000000149011612
10
-278.50000432133675
20
55.000000447034836
0
LINE
5
196
100
AcDbEntity
8
0
100
AcDbLine
10
-290.00000432133675
20
55.000000447034836
30
0
11
-288.50000432133675
21
55.000000447034836
31
0
0
LINE
5
197
100
AcDbEntity
8
0
100
AcDbLine
10
-288.50000432133675
20
55.000000447034836
30
0
11
-288.50000432133675
21
35.000000149011612
31
0
0
LWPOLYLINE
5
198
100
AcDbEntity
8
0
100
AcDbPolyline
90
4
70
1
43
0.0
10
-283.50000432133675
20
55.000000447034836
10
-285.00000432133675
20
55.000000447034836
10
-285.00000432133675
20
35.000000149011612
10
-283.50000432133675
20
35.000000149011612
0
LWPOLYLINE
5
199
100
AcDbEntity
8
0
100
AcDbPolyline
90
4
70
1
43
0.0
10
-265.00000432133675
20
55.000000447034836
10
-265.00000432133675
20
35.000000149011612
10
-263.50000432133675
20
35.000000149011612
10
-263.50000432133675
20
55.000000447034836
0
LWPOLYLINE
5
200
100
AcDbEntity
8
0
100
AcDbPolyline
90
4
70
1
43
0.0
10
-268.50000432133675
20
35.000000149011612
10
-268.50000432133675
20
55.000000447034836
10
-270.00000432133675
20
55.000000447034836
10
-270.00000432133675
20
35.000000149011612
0
LINE
5
201
100
AcDbEntity
8
0
100
AcDbLine
10
-288.50000432133675
20
55.000000447034836
30
0
11
-288.50000432133675
21
35.000000149011612
31
0
0
LINE
5
202
100
AcDbEntity
8
0
100
AcDbLine
10
-290.00000432133675
20
55.000000447034836
30
0
11
-288.50000432133675
21
55.000000447034836
31
0
0
LINE
5
203
100
AcDbEntity
8
0
100
AcDbLine
10
-288.50000432133675
20
35.000000149011612
30
0
11
-290.00000432133675
21
35.000000149011612
31
0
0
LWPOLYLINE
5
204
100
AcDbEntity
8
0
100
AcDbPolyline
90
4
70
1
43
0.0
10
-275.00000432133675
20
35.000000149011612
10
-273.50000432133675
20
35.000000149011612
10
-273.50000432133675
20
51.93661351627199
10
-275.00000432133675
20
51.93661351627199
0
LINE
5
205
100
AcDbEntity
8
0
100
AcDbLine
10
-288.50000432133675
20
35.000000149011612
30
0
11
-290.00000432133675
21
35.000000149011612
31
0
0
LWPOLYLINE
5
206
100
AcDbEntity
8
0
100
AcDbPolyline
90
4
70
1
43
0.0
10
-243.50000432133675
20
80.000000447034836
10
-245.00000432133675
20
80.000000447034836
10
-245.00000432133675
20
60.000000149011612
10
-243.50000432133675
20
60.000000149011612
0
LWPOLYLINE
5
207
100
AcDbEntity
8
0
100
AcDbPolyline
90
4
70
1
43
0.0
10
-258.50000432133675
20
60.000000149011612
10
-258.50000432133675
20
80.000000447034836
10
-260.00000432133675
20
80.000000447034836
10
-260.00000432133675
20
60.000000149011612
0
LWPOLYLINE
5
208
100
AcDbEntity
8
0
100
AcDbPolyline
90
4
70
1
43
0.0
10
-260.00000432133675
20
80.000000447034836
10
-260.00000432133675
20
60.000000149011612
10
-258.50000432133675
20
60.000000149011612
10
-258.50000432133675
20
80.000000447034836
0
LWPOLYLINE
5
209
100
AcDbEntity
8
0
100
AcDbPolyline
90
4
70
1
43
0.0
10
-248.50000432133675
20
80.000000447034836
10
-250.00000432133675
20
80.000000447034836
10
-250.00000432133675
20
60.000000149011612
10
-248.50000432133675
20
60.000000149011612
0
LWPOLYLINE
5
210
100
AcDbEntity
8
0
100
AcDbPolyline
90
4
70
1
43
0.0
10
-253.50000432133675
20
80.000000447034836
10
-255.00000432133675
20
80.000000447034836
10
-255.00000432133675
20
60.000000149011612
10
-253.50000432133675
20
60.000000149011612
0
LWPOLYLINE
5
211
100
AcDbEntity
8
0
100
AcDbPolyline
90
4
70
1
43
0.0
10
-248.50000432133675
20
80.000000447034836
10
-250.00000432133675
20
80.000000447034836
10
-250.00000432133675
20
60.000000149011612
10
-248.50000432133675
20
60.000000149011612
0
LWPOLYLINE
5
212
100
AcDbEntity
8
0
100
AcDbPolyline
90
4
70
1
43
0.0
10
-268.50000432133675
20
60.000000149011612
10
-268.50000432133675
20
80.000000447034836
10
-270.00000432133675
20
80.000000447034836
10
-270.00000432133675
20
60.000000149011612
0
LWPOLYLINE
5
213
100
AcDbEntity
8
0
100
AcDbPolyline
90
4
70
1
43
0.0
10
-278.50000432133675
20
60.000000149011612
10
-278.50000432133675
20
80.000000447034836
10
-280.00000432133675
20
80.000000447034836
10
-280.00000432133675
20
60.000000149011612
0
LINE
5
214
100
AcDbEntity
8
0
100
AcDbLine
10
-290.00000432133675
20
60.000000149011612
30
0
11
-290.00000432133675
21
80.000000447034836
31
0
0
LINE
5
215
100
AcDbEntity
8
0
100
AcDbLine
10
-290.00000432133675
20
60.000000149011612
30
0
11
-290.00000432133675
21
80.000000447034836
31
0
0
LWPOLYLINE
5
216
100
AcDbEntity
8
0
100
AcDbPolyline
90
4
70
1
43
0.0
10
-273.50000432133675
20
60.000000149011612
10
-273.50000432133675
20
80.000000447034836
10
-275.00000432133675
20
80.000000447034836
10
-275.00000432133675
20
60.000000149011612
0
LWPOLYLINE
5
217
100
AcDbEntity
8
0
100
AcDbPolyline
90
4
70
1
43
0.0
10
-280.00000432133675
20
80.000000447034836
10
-280.00000432133675
20
60.000000149011612
10
-278.50000432133675
20
60.000000149011612
10
-278.50000432133675
20
80.000000447034836
0
LINE
5
218
100
AcDbEntity
8
0
100
AcDbLine
10
-290.00000432133675
20
80.000000447034836
30
0
11
-288.50000432133675
21
80.000000447034836
31
0
0
LINE
5
219
100
AcDbEntity
8
0
100
AcDbLine
10
-288.50000432133675
20
80.000000447034836
30
0
11
-288.50000432133675
21
60.000000149011612
31
0
0
LWPOLYLINE
5
220
100
AcDbEntity
8
0
100
AcDbPolyline
90
4
70
1
43
0.0
10
-283.50000432133675
20
80.000000447034836
10
-285.00000432133675
20
80.000000447034836
10
-285.00000432133675
20
60.000000149011612
10
-283.50000432133675
20
60.000000149011612
0
LWPOLYLINE
5
221
100
AcDbEntity
8
0
100
AcDbPolyline
90
4
70
1
43
0.0
10
-265.00000432133675
20
80.000000447034836
10
-265.00000432133675
20
60.000000149011612
10
-263.50000432133675
20
60.000000149011612
10
-263.50000432133675
20
80.000000447034836
0
LWPOLYLINE
5
222
100
AcDbEntity
8
0
100
AcDbPolyline
90
4
70
1
43
0.0
10
-268.50000432133675
20
60.000000149011612
10
-268.50000432133675
20
80.000000447034836
10
-270.00000432133675
20
80.000000447034836
10
-270.00000432133675
20
60.000000149011612
0
LINE
5
223
100
AcDbEntity
8
0
100
AcDbLine
10
-288.50000432133675
20
80.000000447034836
30
0
11
-288.50000432133675
21
60.000000149011612
31
0
0
LINE
5
224
100
AcDbEntity
8
0
100
AcDbLine
10
-290.00000432133675
20
80.000000447034836
30
0
11
-288.50000432133675
21
80.000000447034836
31
0
0
LINE
5
225
100
AcDbEntity
8
0
100
AcDbLine
10
-288.50000432133675
20
60.000000149011612
30
0
11
-290.00000432133675
21
60.000000149011612
31
0
0
LINE
5
226
100
AcDbEntity
8
0
100
AcDbLine
10
-288.50000432133675
20
60.000000149011612
30
0
11
-290.00000432133675
21
60.000000149011612
31
0
0
LWPOLYLINE
5
227
100
AcDbEntity
8
0
100
AcDbPolyline
90
4
70
1
43
0.0
10
-243.50000432133675
20
105.00000044703484
10
-245.00000432133675
20
105.00000044703484
10
-245.00000432133675
20
85.000000149011612
10
-243.50000432133675
20
85.000000149011612
0
LWPOLYLINE
5
228
100
AcDbEntity
8
0
100
AcDbPolyline
90
4
70
1
43
0.0
10
-258.50000432133675
20
85.000000149011612
10
-258.50000432133675
20
105.00000044703484
10
-260.00000432133675
20
105.00000044703484
10
-260.00000432133675
20
85.000000149011612
0
LWPOLYLINE
5
229
100
AcDbEntity
8
0
100
AcDbPolyline
90
4
70
1
43
0.0
10
-260.00000432133675
20
105.00000044703484
10
-260.00000432133675
20
85.000000149011612
10
-258.50000432133675
20
85.000000149011612
10
-258.50000432133675
20
105.00000044703484
0
LWPOLYLINE
5
230
100
AcDbEntity
8
0
100
AcDbPolyline
90
4
70
1
43
0.0
10
-248.50000432133675
20
105.00000044703484
10
-250.00000432133675
20
105.00000044703484
10
-250.00000432133675
20
85.000000149011612
10
-248.50000432133675
20
85.000000149011612
0
LWPOLYLINE
5
231
100
AcDbEntity
8
0
100
AcDbPolyline
90
4
70
1
43
0.0
10
-253.50000432133675
20
105.00000044703484
10
-255.00000432133675
20
105.00000044703484
10
-255.00000432133675
20
85.000000149011612
10
-253.50000432133675
20
85.000000149011612
0
LWPOLYLINE
5
232
100
AcDbEntity
8
0
100
AcDbPolyline
90
4
70
1
43
0.0
10
-248.50000432133675
20
105.00000044703484
10
-250.00000432133675
20
105.00000044703484
10
-250.00000432133675
20
85.000000149011612
10
-248.50000432133675
20
85.000000149011612
0
LWPOLYLINE
5
233
100
AcDbEntity
8
0
100
AcDbPolyline
90
4
70
1
43
0.0
10
-268.50000432133675
20
85.000000149011612
10
-268.50000432133675
20
105.00000044703484
10
-270.00000432133675
20
105.00000044703484
10
-270.00000432133675
20
85.000000149011612
0
LWPOLYLINE
5
234
100
AcDbEntity
8
0
100
AcDbPolyline
90
4
70
1
43
0.0
10
-278.50000432133675
20
85.000000149011612
10
-278.50000432133675
20
105.00000044703484
10
-280.00000432133675
20
105.00000044703484
10
-280.00000432133675
20
85.000000149011612
0
LINE
5
235
100
AcDbEntity
8
0
100
AcDbLine
10
-290.00000432133675
20
85.000000149011612
30
0
11
-290.00000432133675
21
105.00000044703484
31
0
0
LINE
5
236
100
AcDbEntity
8
0
100
AcDbLine
10
-290.00000432133675
20
85.000000149011612
30
0
11
-290.00000432133675
21
105.00000044703484
31
0
0
LWPOLYLINE
5
237
100
AcDbEntity
8
0
100
AcDbPolyline
90
4
70
1
43
0.0
10
-280.00000432133675
20
105.00000044703484
10
-280.00000432133675
20
85.000000149011612
10
-278.50000432133675
20
85.000000149011612
10
-278.50000432133675
20
105.00000044703484
0
LINE
5
238
100
AcDbEntity
8
0
100
AcDbLine
10
-290.00000432133675
20
105.00000044703484
30
0
11
-288.50000432133675
21
105.00000044703484
31
0
0
LINE
5
239
100
AcDbEntity
8
0
100
AcDbLine
10
-288.50000432133675
20
105.00000044703484
30
0
11
-288.50000432133675
21
85.000000149011612
31
0
0
LWPOLYLINE
5
240
100
AcDbEntity
8
0
100
AcDbPolyline
90
4
70
1
43
0.0
10
-283.50000432133675
20
105.00000044703484
10
-285.00000432133675
20
105.00000044703484
10
-285.00000432133675
20
85.000000149011612
10
-283.50000432133675
20
85.000000149011612
0
LWPOLYLINE
5
241
100
AcDbEntity
8
0
100
AcDbPolyline
90
4
70
1
43
0.0
10
-275.00000432133675
20
100.98902500974404
10
-275.00000432133675
20
85.000000149011612
10
-273.50000432133675
20
85.000000149011612
10
-273.50000432133675
20
100.98902500974404
0
LWPOLYLINE
5
242
100
AcDbEntity
8
0
100
AcDbPolyline
90
4
70
1
43
0.0
10
-265.00000432133675
20
105.00000044703484
10
-265.00000432133675
20
85.000000149011612
10
-263.50000432133675
20
85.000000149011612
10
-263.50000432133675
20
105.00000044703484
0
LWPOLYLINE
5
243
100
AcDbEntity
8
0
100
AcDbPolyline
90
4
70
1
43
0.0
10
-268.50000432133675
20
85.000000149011612
10
-268.50000432133675
20
105.00000044703484
10
-270.00000432133675
20
105.00000044703484
10
-270.00000432133675
20
85.000000149011612
0
LINE
5
244
100
AcDbEntity
8
0
100
AcDbLine
10
-288.50000432133675
20
105.00000044703484
30
0
11
-288.50000432133675
21
85.000000149011612
31
0
0
LINE
5
245
100
AcDbEntity
8
0
100
AcDbLine
10
-290.00000432133675
20
105.00000044703484
30
0
11
-288.50000432133675
21
105.00000044703484
31
0
0
LINE
5
246
100
AcDbEntity
8
0
100
AcDbLine
10
-288.50000432133675
20
85.000000149011612
30
0
11
-290.00000432133675
21
85.000000149011612
31
0
0
LINE
5
247
100
AcDbEntity
8
0
100
AcDbLine
10
-288.50000432133675
20
85.000000149011612
30
0
11
-290.00000432133675
21
85.000000149011612
31
0
0
LWPOLYLINE
5
248
100
AcDbEntity
8
0
100
AcDbPolyline
90
4
70
1
43
0.0
10
-243.50000432133675
20
130.00000044703484
10
-245.00000432133675
20
130.00000044703484
10
-245.00000432133675
20
110.00000014901161
10
-243.50000432133675
20
110.00000014901161
0
LWPOLYLINE
5
249
100
AcDbEntity
8
0
100
AcDbPolyline
90
4
70
1
43
0.0
10
-258.50000432133675
20
110.00000014901161
10
-258.50000432133675
20
130.00000044703484
10
-260.00000432133675
20
130.00000044703484
10
-260.00000432133675
20
110.00000014901161
0
LWPOLYLINE
5
250
100
AcDbEntity
8
0
100
AcDbPolyline
90
4
70
1
43
0.0
10
-260.00000432133675
20
130.00000044703484
10
-260.00000432133675
20
110.00000014901161
10
-258.50000432133675
20
110.00000014901161
10
-258.50000432133675
20
130.00000044703484
0
LWPOLYLINE
5
251
100
AcDbEntity
8
0
100
AcDbPolyline
90
4
70
1
43
0.0
10
-248.50000432133675
20
130.00000044703484
10
-250.00000432133675
20
130.00000044703484
10
-250.00000432133675
20
110.00000014901161
10
-248.50000432133675
20
110.00000014901161
0
LWPOLYLINE
5
252
100
AcDbEntity
8
0
100
AcDbPolyline
90
4
70
1
43
0.0
10
-253.50000432133675
20
130.00000044703484
10
-255.00000432133675
20
130.00000044703484
10
-255.00000432133675
20
110.00000014901161
10
-253.50000432133675
20
110.00000014901161
0
LWPOLYLINE
5
253
100
AcDbEntity
8
0
100
AcDbPolyline
90
4
70
1
43
0.0
10
-248.50000432133675
20
130.00000044703484
10
-250.00000432133675
20
130.00000044703484
10
-250.00000432133675
20
110.00000014901161
10
-248.50000432133675
20
110.00000014901161
0
LWPOLYLINE
5
254
100
AcDbEntity
8
0
100
AcDbPolyline
90
4
70
1
43
0.0
10
-268.50000432133675
20
110.00000014901161
10
-268.50000432133675
20
130.00000044703484
10
-270.00000432133675
20
130.00000044703484
10
-270.00000432133675
20
110.00000014901161
0
LWPOLYLINE
5
255
100
AcDbEntity
8
0
100
AcDbPolyline
90
4
70
1
43
0.0
10
-278.50000432133675
20
110.00000014901161
10
-278.50000432133675
20
130.00000044703484
10
-280.00000432133675
20
130.00000044703484
10
-280.00000432133675
20
110.00000014901161
0
LINE
5
256
100
AcDbEntity
8
0
100
AcDbLine
10
-290.00000432133675
20
110.00000014901161
30
0
11
-290.00000432133675
21
130.00000044703484
31
0
0
LINE
5
257
100
AcDbEntity
8
0
100
AcDbLine
10
-290.00000432133675
20
110.00000014901161
30
0
11
-290.00000432133675
21
130.00000044703484
31
0
0
LWPOLYLINE
5
258
100
AcDbEntity
8
0
100
AcDbPolyline
90
4
70
1
43
0.0
10
-273.50000432133675
20
110.00000014901161
10
-273.50000432133675
20
130.00000044703484
10
-275.00000432133675
20
130.00000044703484
10
-275.00000432133675
20
110.00000014901161
0
LWPOLYLINE
5
259
100
AcDbEntity
8
0
100
AcDbPolyline
90
4
70
1
43
0.0
10
-280.00000432133675
20
130.00000044703484
10
-280.00000432133675
20
110.00000014901161
10
-278.50000432133675
20
110.00000014901161
10
-278.50000432133675
20
130.00000044703484
0
LINE
5
260
100
AcDbEntity
8
0
100
AcDbLine
10
-290.00000432133675
20
130.00000044703484
30
0
11
-288.50000432133675
21
130.00000044703484
31
0
0
LINE
5
261
100
AcDbEntity
8
0
100
AcDbLine
10
-288.50000432133675
20
130.00000044703484
30
0
11
-288.50000432133675
21
110.00000014901161
31
0
0
LWPOLYLINE
5
262
100
AcDbEntity
8
0
100
AcDbPolyline
90
4
70
1
43
0.0
10
-283.50000432133675
20
130.00000044703484
10
-285.00000432133675
20
130.00000044703484
10
-285.00000432133675
20
110.00000014901161
10
-283.50000432133675
20
110.00000014901161
0
LWPOLYLINE
5
263
100
AcDbEntity
8
0
100
AcDbPolyline
90
4
70
1
43
0.0
10
-265.00000432133675
20
130.00000044703484
10
-265.00000432133675
20
110.00000014901161
10
-263.50000432133675
20
110.00000014901161
10
-263.50000432133675
20
130.00000044703484
0
LWPOLYLINE
5
264
100
AcDbEntity
8
0
100
AcDbPolyline
90
4
70
1
43
0.0
10
-268.50000432133675
20
110.00000014901161
10
-268.50000432133675
20
130.00000044703484
10
-270.00000432133675
20
130.00000044703484
10
-270.00000432133675
20
110.00000014901161
0
LINE
5
265
100
AcDbEntity
8
0
100
AcDbLine
10
-288.50000432133675
20
130.00000044703484
30
0
11
-288.50000432133675
21
110.00000014901161
31
0
0
LINE
5
266
100
AcDbEntity
8
0
100
AcDbLine
10
-290.00000432133675
20
130.00000044703484
30
0
11
-288.50000432133675
21
130.00000044703484
31
0
0
LINE
5
267
100
AcDbEntity
8
0
100
AcDbLine
10
-288.50000432133675
20
110.00000014901161
30
0
11
-290.00000432133675
21
110.00000014901161
31
0
0
LINE
5
268
100
AcDbEntity
8
0
100
AcDbLine
10
-288.50000432133675
20
110.00000014901161
30
0
11
-290.00000432133675
21
110.00000014901161
31
0
0
LINE
5
269
100
AcDbEntity
8
0
100
AcDbLine
10
-258.50000432133675
20
144.14489362676343
30
0
11
-258.50000432133675
21
135.00000014901161
31
0
0
LWPOLYLINE
5
270
100
AcDbEntity
8
0
100
AcDbPolyline
90
4
70
1
43
0.0
10
-245.00000432133675
20
135.00000014901161
10
-243.50000432133675
20
135.00000014901161
10
-243.50000432133675
20
138.95233171239352
42
0.0026929284836261932
10
-245.00000432133675
20
139.55285907263607
0
LINE
5
271
100
AcDbEntity
8
0
100
AcDbLine
10
-260.00000432133675
20
135.00000014901161
30
0
11
-260.00000432133675
21
144.56832414366207
31
0
0
LINE
5
272
100
AcDbEntity
8
0
100
AcDbLine
10
-260.00000432133675
20
135.00000014901161
30
0
11
-260.00000432133675
21
144.56832414366207
31
0
0
LINE
5
273
100
AcDbEntity
8
0
100
AcDbLine
10
-258.50000432133675
20
144.14489362676343
30
0
11
-258.50000432133675
21
135.00000014901161
31
0
0
LWPOLYLINE
5
274
100
AcDbEntity
8
0
100
AcDbPolyline
90
4
70
1
43
0.0
10
-253.50000432133675
20
135.00000014901161
10
-253.5000043213368
20
142.61048489463991
42
0.0026251006108642147
10
-255.00000432133675
20
143.09088157153937
10
-255.00000432133675
20
135.00000014901161
0
LINE
5
275
100
AcDbEntity
8
0
100
AcDbLine
10
-250.00000432133675
20
135.00000014901161
30
0
11
-250.00000432133672
21
141.42135776513268
31
0
0
LINE
5
276
100
AcDbEntity
8
0
100
AcDbLine
10
-248.50000432133675
20
135.00000014901161
30
0
11
-250.00000432133675
21
135.00000014901161
31
0
0
LINE
5
277
100
AcDbEntity
8
0
100
AcDbLine
10
-258.50000432133675
20
135.00000014901161
30
0
11
-260.00000432133675
21
135.00000014901161
31
0
0
LINE
5
278
100
AcDbEntity
8
0
100
AcDbLine
10
-268.5000043213368
20
146.655208813885
30
0
11
-268.50000432133675
21
135.00000014901161
31
0
0
LINE
5
279
100
AcDbEntity
8
0
100
AcDbLine
10
-258.50000432133675
20
135.00000014901161
30
0
11
-260.00000432133675
21
135.00000014901161
31
0
0
LINE
5
280
100
AcDbEntity
8
0
100
AcDbLine
10
-248.50000432133675
20
140.88204443823801
30
0
11
-248.50000432133675
21
135.00000014901161
31
0
0
LINE
5
281
100
AcDbEntity
8
0
100
AcDbLine
10
-248.50000432133675
20
135.00000014901161
30
0
11
-250.00000432133675
21
135.00000014901161
31
0
0
LINE
5
282
100
AcDbEntity
8
0
100
AcDbLine
10
-278.50000432133675
20
148.45117104899333
30
0
11
-278.50000432133675
21
135.00000014901161
31
0
0
LINE
5
283
100
AcDbEntity
8
0
100
AcDbLine
10
-248.50000432133675
20
140.88204443823801
30
0
11
-248.50000432133675
21
135.00000014901161
31
0
0
LINE
5
284
100
AcDbEntity
8
0
100
AcDbLine
10
-290.00000432133675
20
135.00000014901161
30
0
11
-290.00000432133675
21
149.66629575968906
31
0
0
LINE
5
285
100
AcDbEntity
8
0
100
AcDbLine
10
-250.00000432133675
20
135.00000014901161
30
0
11
-250.00000432133672
21
141.42135776513268
31
0
0
LINE
5
286
100
AcDbEntity
8
0
100
AcDbLine
10
-290.00000432133675
20
135.00000014901161
30
0
11
-290.00000432133675
21
149.66629575968906
31
0
0
LWPOLYLINE
5
287
100
AcDbEntity
8
0
100
AcDbPolyline
90
4
70
1
43
0.0
10
-273.50000432133675
20
135.00000014901161
10
-273.5000043213368
20
147.64061171991551
42
0.0025376888214068802
10
-275.00000432133675
20
147.90199530792964
10
-275.00000432133675
20
135.00000014901161
0
LINE
5
288
100
AcDbEntity
8
0
100
AcDbLine
10
-280.00000432133675
20
135.00000014901161
30
0
11
-280.00000432133675
21
148.66068805455421
31
0
0
LINE
5
289
100
AcDbEntity
8
0
100
AcDbLine
10
-288.50000432133675
20
149.55851730807825
30
0
11
-288.50000432133675
21
135.00000014901161
31
0
0
LINE
5
290
100
AcDbEntity
8
0
100
AcDbLine
10
-270.00000432133675
20
135.00000014901161
30
0
11
-270.00000432133675
21
146.96938544907982
31
0
0
LINE
5
291
100
AcDbEntity
8
0
100
AcDbLine
10
-278.50000432133675
20
148.45117104899333
30
0
11
-278.50000432133675
21
135.00000014901161
31
0
0
LINE
5
292
100
AcDbEntity
8
0
100
AcDbLine
10
-280.00000432133675
20
135.00000014901161
30
0
11
-280.00000432133675
21
148.66068805455421
31
0
0
LWPOLYLINE
5
293
100
AcDbEntity
8
0
100
AcDbPolyline
90
4
70
1
43
0.0
10
-265.0000043213368
20
145.85952249508281
10
-265.00000432133675
20
135.00000014901161
10
-263.50000432133675
20
135.00000014901161
10
-263.50000432133675
20
145.49140976517339
42
0.002574198147608983
0
LINE
5
294
100
AcDbEntity
8
0
100
AcDbLine
10
-270.00000432133675
20
135.00000014901161
30
0
11
-270.00000432133675
21
146.96938544907982
31
0
0
LINE
5
295
100
AcDbEntity
8
0
100
AcDbLine
10
-288.50000432133675
20
149.55851730807825
30
0
11
-288.50000432133675
21
135.00000014901161
31
0
0
LWPOLYLINE
5
296
100
AcDbEntity
8
0
100
AcDbPolyline
90
4
70
1
43
0.0
10
-283.50000432133675
20
135.00000014901161
10
-283.50000432133675
20
149.08973855569042
42
0.0025139124946098462
10
-285.00000432133675
20
149.24811600030367
10
-285.00000432133675
20
135.00000014901161
0
LINE
5
297
100
AcDbEntity
8
0
100
AcDbLine
10
-278.50000432133675
20
135.00000014901161
30
0
11
-280.00000432133675
21
135.00000014901161
31
0
0
LINE
5
298
100
AcDbEntity
8
0
100
AcDbLine
10
-288.50000432133675
20
135.00000014901161
30
0
11
-290.00000432133675
21
135.00000014901161
31
0
0
LINE
5
299
100
AcDbEntity
8
0
100
AcDbLine
10
-268.50000432133675
20
135.00000014901161
30
0
11
-270.00000432133675
21
135.00000014901161
31
0
0
LINE
5
300
100
AcDbEntity
8
0
100
AcDbLine
10
-278.50000432133675
20
135.00000014901161
30
0
11
-280.00000432133675
21
135.00000014901161
31
0
0
LINE
5
301
100
AcDbEntity
8
0
100
AcDbLine
10
-288.50000432133675
20
135.00000014901161
30
0
11
-290.00000432133675
21
135.00000014901161
31
0
0
LINE
5
302
100
AcDbEntity
8
0
100
AcDbLine
10
-268.50000432133675
20
135.00000014901161
30
0
11
-270.00000432133675
21
135.00000014901161
31
0
0
LWPOLYLINE
5
303
100
AcDbEntity
8
0
100
AcDbPolyline
90
4
70
1
43
0.0
10
-193.50000432133675
20
55.000000447034836
10
-195.00000432133675
20
55.000000447034836
10
-195.00000432133675
20
35.000000149011612
10
-193.50000432133675
20
35.000000149011612
0
LWPOLYLINE
5
304
100
AcDbEntity
8
0
100
AcDbPolyline
90
4
70
1
43
0.0
10
-208.50000432133675
20
35.000000149011612
10
-208.50000432133675
20
55.000000447034836
10
-210.00000432133675
20
55.000000447034836
10
-210.00000432133675
20
35.000000149011612
0
LWPOLYLINE
5
305
100
AcDbEntity
8
0
100
AcDbPolyline
90
4
70
1
43
0.0
10
-210.00000432133675
20
55.000000447034836
10
-210.00000432133675
20
35.000000149011612
10
-208.50000432133675
20
35.000000149011612
10
-208.50000432133675
20
55.000000447034836
0
LWPOLYLINE
5
306
100
AcDbEntity
8
0
100
AcDbPolyline
90
4
70
1
43
0.0
10
-198.50000432133675
20
55.000000447034836
10
-200.00000432133675
20
55.000000447034836
10
-200.00000432133675
20
35.000000149011612
10
-198.50000432133675
20
35.000000149011612
0
LWPOLYLINE
5
307
100
AcDbEntity
8
0
100
AcDbPolyline
90
4
70
1
43
0.0
10
-203.50000432133675
20
55.000000447034836
10
-205.00000432133675
20
55.000000447034836
10
-205.00000432133675
20
35.000000149011612
10
-203.50000432133675
20
35.000000149011612
0
LWPOLYLINE
5
308
100
AcDbEntity
8
0
100
AcDbPolyline
90
4
70
1
43
0.0
10
-198.50000432133675
20
55.000000447034836
10
-200.00000432133675
20
55.000000447034836
10
-200.00000432133675
20
35.000000149011612
10
-198.50000432133675
20
35.000000149011612
0
LWPOLYLINE
5
309
100
AcDbEntity
8
0
100
AcDbPolyline
90
4
70
1
43
0.0
10
-218.50000432133675
20
35.000000149011612
10
-218.50000432133675
20
55.000000447034836
10
-220.00000432133675
20
55.000000447034836
10
-220.00000432133675
20
35.000000149011612
0
LWPOLYLINE
5
310
100
AcDbEntity
8
0
100
AcDbPolyline
90
4
70
1
43
0.0
10
-228.50000432133675
20
35.000000149011612
10
-228.50000432133675
20
55.000000447034836
10
-230.00000432133675
20
55.000000447034836
10
-230.00000432133675
20
35.000000149011612
0
LWPOLYLINE
5
311
100
AcDbEntity
8
0
100
AcDbPolyline
90
4
70
1
43
0.0
10
-240.00000432133675
20
55.000000447034836
10
-240.00000432133675
20
35.000000149011612
10
-238.50000432133675
20
35.000000149011612
10
-238.50000432133675
20
55.000000447034836
0
LWPOLYLINE
5
312
100
AcDbEntity
8
0
100
AcDbPolyline
90
4
70
1
43
0.0
10
-240.00000432133675
20
55.000000447034836
10
-240.00000432133675
20
35.000000149011612
10
-238.50000432133675
20
35.000000149011612
10
-238.50000432133675
20
55.000000447034836
0
LWPOLYLINE
5
313
100
AcDbEntity
8
0
100
AcDbPolyline
90
4
70
1
43
0.0
10
-223.50000432133675
20
35.000000149011612
10
-223.50000432133675
20
55.000000447034836
10
-225.00000432133675
20
55.000000447034836
10
-225.00000432133675
20
35.000000149011612
0
LWPOLYLINE
5
314
100
AcDbEntity
8
0
100
AcDbPolyline
90
4
70
1
43
0.0
10
-230.00000432133675
20
55.000000447034836
10
-230.00000432133675
20
35.000000149011612
10
-228.50000432133675
20
35.000000149011612
10
-228.50000432133675
20
55.000000447034836
0
LWPOLYLINE
5
315
100
AcDbEntity
8
0
100
AcDbPolyline
90
4
70
1
43
0.0
10
-233.50000432133675
20
55.000000447034836
10
-235.00000432133675
20
55.000000447034836
10
-235.00000432133675
20
35.000000149011612
10
-233.50000432133675
20
35.000000149011612
0
LWPOLYLINE
5
316
100
AcDbEntity
8
0
100
AcDbPolyline
90
4
70
1
43
0.0
10
-215.00000432133675
20
55.000000447034836
10
-215.00000432133675
20
35.000000149011612
10
-213.50000432133675
20
35.000000149011612
10
-213.50000432133675
20
55.000000447034836
0
LWPOLYLINE
5
317
100
AcDbEntity
8
0
100
AcDbPolyline
90
4
70
1
43
0.0
10
-218.50000432133675
20
35.000000149011612
10
-218.50000432133675
20
55.000000447034836
10
-220.00000432133675
20
55.000000447034836
10
-220.00000432133675
20
35.000000149011612
0
LINE
5
318
100
AcDbEntity
8
0
100
AcDbLine
10
-158.50000432133675
20
49.777015006308709
30
0
11
-158.50000432133675
21
35.000000149011612
31
0
0
LINE
5
319
100
AcDbEntity
8
0
100
AcDbLine
10
-160.00000432133675
20
35.000000149011612
30
0
11
-160.00000432133672
21
53.851659305672904
31
0
0
LINE
5
320
100
AcDbEntity
8
0
100
AcDbLine
10
-160.00000432133675
20
35.000000149011612
30
0
11
-160.00000432133672
21
53.851659305672904
31
0
0
LINE
5
321
100
AcDbEntity
8
0
100
AcDbLine
10
-158.50000432133675
20
49.777015006308709
30
0
11
-158.50000432133675
21
35.000000149011612
31
0
0
LINE
5
322
100
AcDbEntity
8
0
100
AcDbLine
10
-158.50000432133675
20
35.000000149011612
30
0
11
-160.00000432133675
21
35.000000149011612
31
0
0
LWPOLYLINE
5
323
100
AcDbEntity
8
0
100
AcDbPolyline
90
4
70
1
43
0.0
10
-168.50000432133675
20
35.000000149011612
10
-168.50000432133675
20
55.000000447034836
10
-170.00000432133675
20
55.000000447034836
10
-170.00000432133675
20
35.000000149011612
0
LINE
5
324
100
AcDbEntity
8
0
100
AcDbLine
10
-158.50000432133675
20
35.000000149011612
30
0
11
-160.00000432133675
21
35.000000149011612
31
0
0
LWPOLYLINE
5
325
100
AcDbEntity
8
0
100
AcDbPolyline
90
4
70
1
43
0.0
10
-178.50000432133675
20
35.000000149011612
10
-178.50000432133675
20
55.000000447034836
10
-180.00000432133675
20
55.000000447034836
10
-180.00000432133675
20
35.000000149011612
0
LWPOLYLINE
5
326
100
AcDbEntity
8
0
100
AcDbPolyline
90
4
70
1
43
0.0
10
-190.00000432133675
20
55.000000447034836
10
-190.00000432133675
20
35.000000149011612
10
-188.50000432133675
20
35.000000149011612
10
-188.50000432133675
20
55.000000447034836
0
LWPOLYLINE
5
327
100
AcDbEntity
8
0
100
AcDbPolyline
90
4
70
1
43
0.0
10
-190.00000432133675
20
55.000000447034836
10
-190.00000432133675
20
35.000000149011612
10
-188.50000432133675
20
35.000000149011612
10
-188.50000432133675
20
55.000000447034836
0
LWPOLYLINE
5
328
100
AcDbEntity
8
0
100
AcDbPolyline
90
4
70
1
43
0.0
10
-173.50000432133675
20
35.000000149011612
10
-173.50000432133675
20
55.000000447034836
10
-175.00000432133675
20
55.000000447034836
10
-175.00000432133675
20
35.000000149011612
0
LWPOLYLINE
5
329
100
AcDbEntity
8
0
100
AcDbPolyline
90
4
70
1
43
0.0
10
-180.00000432133675
20
55.000000447034836
10
-180.00000432133675
20
35.000000149011612
10
-178.50000432133675
20
35.000000149011612
10
-178.50000432133675
20
55.000000447034836
0
LWPOLYLINE
5
330
100
AcDbEntity
8
0
100
AcDbPolyline
90
4
70
1
43
0.0
10
-183.50000432133675
20
55.000000447034836
10
-185.00000432133675
20
55.000000447034836
10
-185.00000432133675
20
35.000000149011612
10
-183.50000432133675
20
35.000000149011612
0
LWPOLYLINE
5
331
100
AcDbEntity
8
0
100
AcDbPolyline
90
4
70
1
43
0.0
10
-165.00000432133675
20
55.000000447034836
10
-165.00000432133675
20
35.000000149011612
10
-163.50000432133675
20
35.000000149011612
10
-163.50000432133675
20
55.000000447034836
0
LWPOLYLINE
5
332
100
AcDbEntity
8
0
100
AcDbPolyline
90
4
70
1
43
0.0
10
-168.50000432133675
20
35.000000149011612
10
-168.50000432133675
20
55.000000447034836
10
-170.00000432133675
20
55.000000447034836
10
-170.00000432133675
20
35.000000149011612
0
LWPOLYLINE
5
333
100
AcDbEntity
8
0
100
AcDbPolyline
90
4
70
1
43
0.0
10
-218.50000432133675
20
80.000000447034836
10
-220.00000432133675
20
80.000000447034836
10
-220.00000432133675
20
60.000000149011612
10
-218.50000432133675
20
60.000000149011612
0
LWPOLYLINE
5
334
100
AcDbEntity
8
0
100
AcDbPolyline
90
4
70
1
43
0.0
10
-223.50000432133675
20
80.000000447034836
10
-225.00000432133675
20
80.000000447034836
10
-225.00000432133675
20
60.000000149011612
10
-223.50000432133675
20
60.000000149011612
0
LWPOLYLINE
5
335
100
AcDbEntity
8
0
100
AcDbPolyline
90
4
70
1
43
0.0
10
-233.50000432133675
20
80.000000447034836
10
-235.00000432133675
20
80.000000447034836
10
-235.00000432133675
20
60.000000149011612
10
-233.50000432133675
20
60.000000149011612
0
LWPOLYLINE
5
336
100
AcDbEntity
8
0
100
AcDbPolyline
90
4
70
1
43
0.0
10
-238.50000432133675
20
60.000000149011612
10
-238.50000432133675
20
80.000000447034836
10
-240.00000432133675
20
80.000000447034836
10
-240.00000432133675
20
60.000000149011612
0
LWPOLYLINE
5
337
100
AcDbEntity
8
0
100
AcDbPolyline
90
4
70
1
43
0.0
10
-240.00000432133675
20
80.000000447034836
10
-240.00000432133675
20
60.000000149011612
10
-238.50000432133675
20
60.000000149011612
10
-238.50000432133675
20
80.000000447034836
0
LWPOLYLINE
5
338
100
AcDbEntity
8
0
100
AcDbPolyline
90
4
70
1
43
0.0
10
-213.50000432133675
20
60.000000149011612
10
-213.50000432133675
20
80.000000447034836
10
-215.00000432133675
20
80.000000447034836
10
-215.00000432133675
20
60.000000149011612
0
LWPOLYLINE
5
339
100
AcDbEntity
8
0
100
AcDbPolyline
90
4
70
1
43
0.0
10
-230.00000432133675
20
80.000000447034836
10
-230.00000432133675
20
60.000000149011612
10
-228.50000432133675
20
60.000000149011612
10
-228.50000432133675
20
80.000000447034836
0
LWPOLYLINE
5
340
100
AcDbEntity
8
0
100
AcDbPolyline
90
4
70
1
43
0.0
10
-230.00000432133675
20
80.000000447034836
10
-230.00000432133675
20
60.000000149011612
10
-228.50000432133675
20
60.000000149011612
10
-228.50000432133675
20
80.000000447034836
0
LWPOLYLINE
5
341
100
AcDbEntity
8
0
100
AcDbPolyline
90
4
70
1
43
0.0
10
-220.00000432133675
20
80.000000447034836
10
-220.00000432133675
20
60.000000149011612
10
-218.50000432133675
20
60.000000149011612
10
-218.50000432133675
20
80.000000447034836
0
LWPOLYLINE
5
342
100
AcDbEntity
8
0
100
AcDbPolyline
90
4
70
1
43
0.0
10
-198.50000432133675
20
60.000000149011612
10
-198.50000432133675
20
80.000000447034836
10
-200.00000432133675
20
80.000000447034836
10
-200.00000432133675
20
60.000000149011612
0
LWPOLYLINE
5
343
100
AcDbEntity
8
0
100
AcDbPolyline
90
4
70
1
43
0.0
10
-203.50000432133675
20
60.000000149011612
10
-203.50000432133675
20
80.000000447034836
10
-205.00000432133675
20
80.000000447034836
10
-205.00000432133675
20
60.000000149011612
0
LWPOLYLINE
5
344
100
AcDbEntity
8
0
100
AcDbPolyline
90
4
70
1
43
0.0
10
-208.50000432133675
20
60.000000149011612
10
-208.50000432133675
20
80.000000447034836
10
-210.00000432133675
20
80.000000447034836
10
-210.00000432133675
20
60.000000149011612
0
LWPOLYLINE
5
345
100
AcDbEntity
8
0
100
AcDbPolyline
90
4
70
1
43
0.0
10
-198.50000432133675
20
80.000000447034836
10
-200.00000432133675
20
80.000000447034836
10
-200.00000432133675
20
60.000000149011612
10
-198.50000432133675
20
60.000000149011612
0
LWPOLYLINE
5
346
100
AcDbEntity
8
0
100
AcDbPolyline
90
4
70
1
43
0.0
10
-210.00000432133675
20
60.000000149011612
10
-208.50000432133675
20
60.000000149011612
10
-208.50000432133675
20
80.000000447034836
10
-210.00000432133675
20
80.000000447034836
0
LWPOLYLINE
5
347
100
AcDbEntity
8
0
100
AcDbPolyline
90
4
70
1
43
0.0
10
-193.50000432133675
20
80.000000447034836
10
-195.00000432133675
20
80.000000447034836
10
-195.00000432133675
20
77.99497373369104
10
-193.50000432133675
20
77.99497373369104
0
LWPOLYLINE
5
348
100
AcDbEntity
8
0
100
AcDbPolyline
90
4
70
1
43
0.0
10
-195.00000432133675
20
60.000000149011612
10
-193.50000432133675
20
60.000000149011612
10
-193.50000432133675
20
71.959878164169794
10
-195.00000432133675
20
71.959878164169794
0
LWPOLYLINE
5
349
100
AcDbEntity
8
0
100
AcDbPolyline
90
4
70
1
43
0.0
10
-173.50000432133675
20
80.000000447034836
10
-175.00000432133675
20
80.000000447034836
10
-175.00000432133675
20
60.000000149011612
10
-173.50000432133675
20
60.000000149011612
0
LWPOLYLINE
5
350
100
AcDbEntity
8
0
100
AcDbPolyline
90
4
70
1
43
0.0
10
-183.50000432133675
20
80.000000447034836
10
-185.00000432133675
20
80.000000447034836
10
-185.00000432133675
20
60.000000149011612
10
-183.50000432133675
20
60.000000149011612
0
LWPOLYLINE
5
351
100
AcDbEntity
8
0
100
AcDbPolyline
90
4
70
1
43
0.0
10
-188.50000432133675
20
60.000000149011612
10
-188.50000432133675
20
80.000000447034836
10
-190.00000432133675
20
80.000000447034836
10
-190.00000432133675
20
60.000000149011612
0
LWPOLYLINE
5
352
100
AcDbEntity
8
0
100
AcDbPolyline
90
4
70
1
43
0.0
10
-190.00000432133675
20
80.000000447034836
10
-190.00000432133675
20
60.000000149011612
10
-188.50000432133675
20
60.000000149011612
10
-188.50000432133675
20
80.000000447034836
0
LWPOLYLINE
5
353
100
AcDbEntity
8
0
100
AcDbPolyline
90
4
70
1
43
0.0
10
-163.50000432133675
20
60.000000149011612
10
-163.50000432133675
20
62.191246809538356
42
0.005878703584334336
10
-165.00000432133672
20
65.383493075553091
10
-165.00000432133675
20
60.000000149011612
0
LWPOLYLINE
5
354
100
AcDbEntity
8
0
100
AcDbPolyline
90
4
70
1
43
0.0
10
-180.00000432133675
20
80.000000447034836
10
-180.00000432133675
20
60.000000149011612
10
-178.50000432133675
20
60.000000149011612
10
-178.50000432133675
20
80.000000447034836
0
LWPOLYLINE
5
355
100
AcDbEntity
8
0
100
AcDbPolyline
90
4
70
1
43
0.0
10
-180.00000432133675
20
80.000000447034836
10
-180.00000432133675
20
60.000000149011612
10
-178.50000432133675
20
60.000000149011612
10
-178.50000432133675
20
80.000000447034836
0
LINE
5
356
100
AcDbEntity
8
0
100
AcDbLine
10
-170.00000432133675
20
60.000000149011612
30
0
11
-170.00000432133672
21
74.833155242496161
31
0
0
LINE
5
357
100
AcDbEntity
8
0
100
AcDbLine
10
-168.50000432133675
20
60.000000149011612
30
0
11
-170.00000432133675
21
60.000000149011612
31
0
0
LINE
5
358
100
AcDbEntity
8
0
100
AcDbLine
10
-168.50000432133675
20
60.000000149011612
30
0
11
-170.00000432133675
21
60.000000149011612
31
0
0
LINE
5
359
100
AcDbEntity
8
0
100
AcDbLine
10
-170.00000432133675
20
60.000000149011612
30
0
11
-170.00000432133672
21
74.833155242496161
31
0
0
LWPOLYLINE
5
360
100
AcDbEntity
8
0
100
AcDbPolyline
90
4
70
1
43
0.0
10
-268.50000432133675
20
80.000000447034836
10
-270.00000432133675
20
80.000000447034836
10
-270.00000432133675
20
60.000000149011612
10
-268.50000432133675
20
60.000000149011612
0
LWPOLYLINE
5
361
100
AcDbEntity
8
0
100
AcDbPolyline
90
4
70
1
43
0.0
10
-273.50000432133675
20
80.000000447034836
10
-275.00000432133675
20
80.000000447034836
10
-275.00000432133675
20
60.000000149011612
10
-273.50000432133675
20
60.000000149011612
0
LWPOLYLINE
5
362
100
AcDbEntity
8
0
100
AcDbPolyline
90
4
70
1
43
0.0
10
-283.50000432133675
20
80.000000447034836
10
-285.00000432133675
20
80.000000447034836
10
-285.00000432133675
20
60.000000149011612
10
-283.50000432133675
20
60.000000149011612
0
LWPOLYLINE
5
363
100
AcDbEntity
8
0
100
AcDbPolyline
90
4
70
1
43
0.0
10
-288.50000432133675
20
60.000000149011612
10
-288.50000432133675
20
80.000000447034836
10
-290.00000432133675
20
80.000000447034836
10
-290.00000432133675
20
60.000000149011612
0
LWPOLYLINE
5
364
100
AcDbEntity
8
0
100
AcDbPolyline
90
4
70
1
43
0.0
10
-290.00000432133675
20
80.000000447034836
10
-290.00000432133675
20
60.000000149011612
10
-288.50000432133675
20
60.000000149011612
10
-288.50000432133675
20
80.000000447034836
0
LWPOLYLINE
5
365
100
AcDbEntity
8
0
100
AcDbPolyline
90
4
70
1
43
0.0
10
-263.50000432133675
20
60.000000149011612
10
-263.50000432133675
20
80.000000447034836
10
-265.00000432133675
20
80.000000447034836
10
-265.00000432133675
20
60.000000149011612
0
LWPOLYLINE
5
366
100
AcDbEntity
8
0
100
AcDbPolyline
90
4
70
1
43
0.0
10
-280.00000432133675
20
80.000000447034836
10
-280.00000432133675
20
60.000000149011612
10
-278.50000432133675
20
60.000000149011612
10
-278.50000432133675
20
80.000000447034836
0
LWPOLYLINE
5
367
100
AcDbEntity
8
0
100
AcDbPolyline
90
4
70
1
43
0.0
10
-280.00000432133675
20
80.000000447034836
10
-280.00000432133675
20
60.000000149011612
10
-278.50000432133675
20
60.000000149011612
10
-278.50000432133675
20
80.000000447034836
0
LWPOLYLINE
5
368
100
AcDbEntity
8
0
100
AcDbPolyline
90
4
70
1
43
0.0
10
-270.00000432133675
20
80.000000447034836
10
-270.00000432133675
20
60.000000149011612
10
-268.50000432133675
20
60.000000149011612
10
-268.50000432133675
20
80.000000447034836
0
LWPOLYLINE
5
369
100
AcDbEntity
8
0
100
AcDbPolyline
90
4
70
1
43
0.0
10
-248.50000432133675
20
60.000000149011612
10
-248.50000432133675
20
80.000000447034836
10
-250.00000432133675
20
80.000000447034836
10
-250.00000432133675
20
60.000000149011612
0
LWPOLYLINE
5
370
100
AcDbEntity
8
0
100
AcDbPolyline
90
4
70
1
43
0.0
10
-253.50000432133675
20
60.000000149011612
10
-253.50000432133675
20
80.000000447034836
10
-255.00000432133675
20
80.000000447034836
10
-255.00000432133675
20
60.000000149011612
0
LWPOLYLINE
5
371
100
AcDbEntity
8
0
100
AcDbPolyline
90
4
70
1
43
0.0
10
-258.50000432133675
20
60.000000149011612
10
-258.50000432133675
20
80.000000447034836
10
-260.00000432133675
20
80.000000447034836
10
-260.00000432133675
20
60.000000149011612
0
LWPOLYLINE
5
372
100
AcDbEntity
8
0
100
AcDbPolyline
90
4
70
1
43
0.0
10
-248.50000432133675
20
80.000000447034836
10
-250.00000432133675
20
80.000000447034836
10
-250.00000432133675
20
60.000000149011612
10
-248.50000432133675
20
60.000000149011612
0
LWPOLYLINE
5
373
100
AcDbEntity
8
0
100
AcDbPolyline
90
4
70
1
43
0.0
10
-260.00000432133675
20
60.000000149011612
10
-258.50000432133675
20
60.000000149011612
10
-258.50000432133675
20
80.000000447034836
10
-260.00000432133675
20
80.000000447034836
0
LWPOLYLINE
5
374
100
AcDbEntity
8
0
100
AcDbPolyline
90
4
70
1
43
0.0
10
-243.50000432133675
20
80.000000447034836
10
-245.00000432133675
20
80.000000447034836
10
-245.00000432133675
20
60.000000149011612
10
-243.50000432133675
20
60.000000149011612
0
LWPOLYLINE
5
375
100
AcDbEntity
8
0
100
AcDbPolyline
90
4
70
1
43
0.0
10
-238.50000432133675
20
105.00000044703484
10
-240.00000432133675
20
105.00000044703484
10
-240.00000432133675
20
85.000000149011612
10
-238.50000432133675
20
85.000000149011612
0
LWPOLYLINE
5
376
100
AcDbEntity
8
0
100
AcDbPolyline
90
4
70
1
43
0.0
10
-230.00000432133675
20
85.000000149011612
10
-228.50000432133675
20
85.000000149011612
10
-228.50000432133675
20
105.00000044703484
10
-230.00000432133675
20
105.00000044703484
0
LWPOLYLINE
5
377
100
AcDbEntity
8
0
100
AcDbPolyline
90
4
70
1
43
0.0
10
-220.00000432133675
20
105.00000044703484
10
-220.00000432133675
20
85.000000149011612
10
-218.50000432133675
20
85.000000149011612
10
-218.50000432133675
20
105.00000044703484
0
LWPOLYLINE
5
378
100
AcDbEntity
8
0
100
AcDbPolyline
90
4
70
1
43
0.0
10
-240.00000432133675
20
85.000000149011612
10
-238.50000432133675
20
85.000000149011612
10
-238.50000432133675
20
105.00000044703484
10
-240.00000432133675
20
105.00000044703484
0
LWPOLYLINE
5
379
100
AcDbEntity
8
0
100
AcDbPolyline
90
4
70
1
43
0.0
10
-233.50000432133675
20
105.00000044703484
10
-235.00000432133675
20
105.00000044703484
10
-235.00000432133675
20
85.000000149011612
10
-233.50000432133675
20
85.000000149011612
0
LWPOLYLINE
5
380
100
AcDbEntity
8
0
100
AcDbPolyline
90
4
70
1
43
0.0
10
-228.50000432133675
20
105.00000044703484
10
-230.00000432133675
20
105.00000044703484
10
-230.00000432133675
20
85.000000149011612
10
-228.50000432133675
20
85.000000149011612
0
LWPOLYLINE
5
381
100
AcDbEntity
8
0
100
AcDbPolyline
90
4
70
1
43
0.0
10
-220.00000432133675
20
85.000000149011612
10
-218.50000432133675
20
85.000000149011612
10
-218.50000432133675
20
105.00000044703484
10
-220.00000432133675
20
105.00000044703484
0
LWPOLYLINE
5
382
100
AcDbEntity
8
0
100
AcDbPolyline
90
4
70
1
43
0.0
10
-213.50000432133675
20
85.000000149011612
10
-213.50000432133675
20
105.00000044703484
10
-215.00000432133675
20
105.00000044703484
10
-215.00000432133675
20
85.000000149011612
0
LWPOLYLINE
5
383
100
AcDbEntity
8
0
100
AcDbPolyline
90
4
70
1
43
0.0
10
-225.00000432133675
20
85.000000149011612
10
-223.50000432133675
20
85.000000149011612
10
-223.50000432133675
20
101.09017186286449
10
-225.00000432133675
20
101.09017186286449
0
LWPOLYLINE
5
384
100
AcDbEntity
8
0
100
AcDbPolyline
90
4
70
1
43
0.0
10
-198.50000432133675
20
105.00000044703484
10
-200.00000432133675
20
105.00000044703484
10
-200.00000432133675
20
85.000000149011612
10
-198.50000432133675
20
85.000000149011612
0
LWPOLYLINE
5
385
100
AcDbEntity
8
0
100
AcDbPolyline
90
4
70
1
43
0.0
10
-198.50000432133675
20
105.00000044703484
10
-200.00000432133675
20
105.00000044703484
10
-200.00000432133675
20
85.000000149011612
10
-198.50000432133675
20
85.000000149011612
0
LWPOLYLINE
5
386
100
AcDbEntity
8
0
100
AcDbPolyline
90
4
70
1
43
0.0
10
-195.00000432133675
20
85.000000149011612
10
-193.50000432133675
20
85.000000149011612
10
-193.50000432133675
20
105.00000044703484
10
-195.00000432133675
20
105.00000044703484
0
LWPOLYLINE
5
387
100
AcDbEntity
8
0
100
AcDbPolyline
90
4
70
1
43
0.0
10
-205.00000432133675
20
105.00000044703484
10
-205.00000432133675
20
85.000000149011612
10
-203.50000432133675
20
85.000000149011612
10
-203.50000432133675
20
105.00000044703484
0
LWPOLYLINE
5
388
100
AcDbEntity
8
0
100
AcDbPolyline
90
4
70
1
43
0.0
10
-210.00000432133675
20
85.000000149011612
10
-208.50000432133675
20
85.000000149011612
10
-208.50000432133675
20
105.00000044703484
10
-210.00000432133675
20
105.00000044703484
0
LWPOLYLINE
5
389
100
AcDbEntity
8
0
100
AcDbPolyline
90
4
70
1
43
0.0
10
-208.50000432133675
20
105.00000044703484
10
-210.00000432133675
20
105.00000044703484
10
-210.00000432133675
20
85.000000149011612
10
-208.50000432133675
20
85.000000149011612
0
LINE
5
390
100
AcDbEntity
8
0
100
AcDbLine
10
-178.50000432133675
20
85.000000149011612
30
0
11
-180.00000432133675
21
85.000000149011612
31
0
0
LINE
5
391
100
AcDbEntity
8
0
100
AcDbLine
10
-188.50000432133675
20
85.000000149011612
30
0
11
-190.00000432133675
21
85.000000149011612
31
0
0
LINE
5
392
100
AcDbEntity
8
0
100
AcDbLine
10
-188.50000432133675
20
100.33818297965175
30
0
11
-188.50000432133675
21
85.000000149011612
31
0
0
LINE
5
393
100
AcDbEntity
8
0
100
AcDbLine
10
-188.50000432133675
20
100.33818297965175
30
0
11
-188.50000432133675
21
85.000000149011612
31
0
0
LINE
5
394
100
AcDbEntity
8
0
100
AcDbLine
10
-190.00000432133675
20
85.000000149011612
30
0
11
-190.00000432133672
21
101.98039493301671
31
0
0
LWPOLYLINE
5
395
100
AcDbEntity
8
0
100
AcDbPolyline
90
4
70
1
43
0.0
10
-185.00000432133675
20
96.306806581401247
10
-185.00000432133675
20
85.000000149011612
10
-183.50000432133675
20
85.000000149011612
10
-183.50000432133675
20
94.486776888998804
42
0.0039308890657745862
0
LINE
5
396
100
AcDbEntity
8
0
100
AcDbLine
10
-188.50000432133675
20
85.000000149011612
30
0
11
-190.00000432133675
21
85.000000149011612
31
0
0
LINE
5
397
100
AcDbEntity
8
0
100
AcDbLine
10
-190.00000432133675
20
85.000000149011612
30
0
11
-190.00000432133672
21
101.98039493301671
31
0
0
LINE
5
398
100
AcDbEntity
8
0
100
AcDbLine
10
-178.50000432133675
20
87.96448743717437
30
0
11
-178.50000432133675
21
85.000000149011612
31
0
0
LINE
5
399
100
AcDbEntity
8
0
100
AcDbLine
10
-180.00000432133675
20
85.000000149011612
30
0
11
-180.00000432133672
21
90.000005761782006
31
0
0
LINE
5
400
100
AcDbEntity
8
0
100
AcDbLine
10
-178.50000432133675
20
87.96448743717437
30
0
11
-178.50000432133675
21
85.000000149011612
31
0
0
LINE
5
401
100
AcDbEntity
8
0
100
AcDbLine
10
-180.00000432133675
20
85.000000149011612
30
0
11
-180.00000432133672
21
90.000005761782006
31
0
0
LINE
5
402
100
AcDbEntity
8
0
100
AcDbLine
10
-178.50000432133675
20
85.000000149011612
30
0
11
-180.00000432133675
21
85.000000149011612
31
0
0
LWPOLYLINE
5
403
100
AcDbEntity
8
0
100
AcDbPolyline
90
4
70
1
43
0.0
10
-228.50000432133675
20
130.00000044703484
10
-230.00000432133675
20
130.00000044703484
10
-230.00000432133675
20
110.00000014901161
10
-228.50000432133675
20
110.00000014901161
0
LINE
5
404
100
AcDbEntity
8
0
100
AcDbLine
10
-238.50000432133675
20
135.00000014901161
30
0
11
-240.00000432133675
21
135.00000014901161
31
0
0
LWPOLYLINE
5
405
100
AcDbEntity
8
0
100
AcDbPolyline
90
4
70
1
43
0.0
10
-228.50000432133675
20
130.00000044703484
10
-230.00000432133675
20
130.00000044703484
10
-230.00000432133675
20
110.00000014901161
10
-228.50000432133675
20
110.00000014901161
0
LINE
5
406
100
AcDbEntity
8
0
100
AcDbLine
10
-223.50000432133675
20
110.00000014901161
30
0
11
-225.00000432133675
21
110.00000014901161
31
0
0
LWPOLYLINE
5
407
100
AcDbEntity
8
0
100
AcDbPolyline
90
4
70
1
43
0.0
10
-203.50000432133675
20
110.00000014901161
10
-203.50000432133675
20
114.8379329055429
42
0.0032478465479714568
10
-205.00000432133675
20
116.08187119896871
10
-205.00000432133675
20
110.00000014901161
0
LWPOLYLINE
5
408
100
AcDbEntity
8
0
100
AcDbPolyline
90
4
70
1
43
0.0
10
-215.00000432133675
20
123.59207391506636
10
-215.00000432133675
20
110.00000014901161
10
-213.50000432133675
20
110.00000014901161
10
-213.50000432133675
20
122.54693283632699
42
0.0030470304020588463
0
LINE
5
409
100
AcDbEntity
8
0
100
AcDbLine
10
-208.50000432133675
20
118.86021534056134
30
0
11
-208.50000432133675
21
110.00000014901161
31
0
0
LWPOLYLINE
5
410
100
AcDbEntity
8
0
100
AcDbPolyline
90
4
70
1
43
0.0
10
-235.00000432133675
20
130.00000044703484
10
-235.00000432133675
20
110.00000014901161
10
-233.50000432133675
20
110.00000014901161
10
-233.50000432133675
20
130.00000044703484
0
LINE
5
411
100
AcDbEntity
8
0
100
AcDbLine
10
-218.50000432133672
20
125.92756133737313
30
0
11
-218.50000432133675
21
110.00000014901161
31
0
0
LINE
5
412
100
AcDbEntity
8
0
100
AcDbLine
10
-218.50000432133675
20
110.00000014901161
30
0
11
-220.00000432133675
21
110.00000014901161
31
0
0
LWPOLYLINE
5
413
100
AcDbEntity
8
0
100
AcDbPolyline
90
4
70
1
43
0.0
10
-238.50000432133675
20
110.00000014901161
10
-238.50000432133675
20
130.00000044703484
10
-240.00000432133675
20
130.00000044703484
10
-240.00000432133675
20
110.00000014901161
0
LINE
5
414
100
AcDbEntity
8
0
100
AcDbLine
10
-218.50000432133672
20
125.92756133737313
30
0
11
-218.50000432133675
21
110.00000014901161
31
0
0
LINE
5
415
100
AcDbEntity
8
0
100
AcDbLine
10
-225.00000432133675
20
110.00000014901161
30
0
11
-225.00000432133675
21
130.00000044703484
31
0
0
LINE
5
416
100
AcDbEntity
8
0
100
AcDbLine
10
-220.00000432133675
20
110.00000014901161
30
0
11
-220.00000432133675
21
126.88577812904747
31
0
0
LINE
5
417
100
AcDbEntity
8
0
100
AcDbLine
10
-223.50000432133672
20
129.02616270030086
30
0
11
-223.50000432133675
21
110.00000014901161
31
0
0
LINE
5
418
100
AcDbEntity
8
0
100
AcDbLine
10
-238.50000432133675
20
135.00000014901161
30
0
11
-240.00000432133675
21
135.00000014901161
31
0
0
LINE
5
419
100
AcDbEntity
8
0
100
AcDbLine
10
-238.50000432133675
20
136.81283028840679
30
0
11
-238.50000432133675
21
135.00000014901161
31
0
0
LWPOLYLINE
5
420
100
AcDbEntity
8
0
100
AcDbPolyline
90
4
70
1
43
0.0
10
-238.50000432133675
20
130.00000044703484
10
-240.00000432133675
20
130.00000044703484
10
-240.00000432133675
20
110.00000014901161
10
-238.50000432133675
20
110.00000014901161
0
LINE
5
421
100
AcDbEntity
8
0
100
AcDbLine
10
-210.00000432133675
20
110.00000014901161
30
0
11
-210.00000432133675
21
120.00000324100242
31
0
0
LINE
5
422
100
AcDbEntity
8
0
100
AcDbLine
10
-240.00000432133675
20
135.00000014901161
30
0
11
-240.00000432133672
21
137.47727273466106
31
0
0
LINE
5
423
100
AcDbEntity
8
0
100
AcDbLine
10
-220.00000432133675
20
110.00000014901161
30
0
11
-220.00000432133675
21
126.88577812904747
31
0
0
LINE
5
424
100
AcDbEntity
8
0
100
AcDbLine
10
-208.50000432133675
20
110.00000014901161
30
0
11
-210.00000432133675
21
110.00000014901161
31
0
0
LINE
5
425
100
AcDbEntity
8
0
100
AcDbLine
10
-208.50000432133675
20
118.86021534056134
30
0
11
-208.50000432133675
21
110.00000014901161
31
0
0
LINE
5
426
100
AcDbEntity
8
0
100
AcDbLine
10
-240.00000432133675
20
135.00000014901161
30
0
11
-240.00000432133672
21
137.47727273466106
31
0
0
LINE
5
427
100
AcDbEntity
8
0
100
AcDbLine
10
-210.00000432133675
20
110.00000014901161
30
0
11
-210.00000432133675
21
120.00000324100242
31
0
0
LINE
5
428
100
AcDbEntity
8
0
100
AcDbLine
10
-218.50000432133675
20
110.00000014901161
30
0
11
-220.00000432133675
21
110.00000014901161
31
0
0
LINE
5
429
100
AcDbEntity
8
0
100
AcDbLine
10
-238.50000432133675
20
136.81283028840679
30
0
11
-238.50000432133675
21
135.00000014901161
31
0
0
LINE
5
430
100
AcDbEntity
8
0
100
AcDbLine
10
-208.50000432133675
20
110.00000014901161
30
0
11
-210.00000432133675
21
110.00000014901161
31
0
0
ARC
5
431
100
AcDbEntity
8
0
100
AcDbCircle
10
-300
20
0
30
0
40
150.00000000000003
210
0
220
-0
230
1
100
AcDbArc
50
52.410499118214936
51
53.130104417442254
0
ARC
5
432
100
AcDbEntity
8
0
100
AcDbCircle
10
-300
20
0
30
0
40
149.99999999999997
210
0
220
-0
230
1
100
AcDbArc
50
41.983858541742173
51
42.833430493929605
0
ARC
5
433
100
AcDbEntity
8
0
100
AcDbCircle
10
-300
20
0
30
0
40
149.99999999999997
210
0
220
-0
230
1
100
AcDbArc
50
35.90407139802538
51
36.869900396892334
0
LINE
5
434
100
AcDbEntity
8
0
100
AcDbLine
10
-168.50000432133672
20
72.164749958075419
30
0
11
-168.50000432133675
21
60.000000149011612
31
0
0
LINE
5
435
100
AcDbEntity
8
0
100
AcDbLine
10
-168.50000432133672
20
72.164749958075419
30
0
11
-168.50000432133675
21
60.000000149011612
31
0
0
ARC
5
436
100
AcDbEntity
8
0
100
AcDbCircle
10
-300
20
0
30
0
40
150.00000000000003
210
0
220
-0
230
1
100
AcDbArc
50
28.757160472378601
51
29.926438175232825
0
ARC
5
437
100
AcDbEntity
8
0
100
AcDbCircle
10
-300
20
0
30
0
40
150
210
0
220
-0
230
1
100
AcDbArc
50
19.380905101206892
51
21.03947437902854
0
LINE
5
438
100
AcDbEntity
8
0
100
AcDbLine
10
-155.00000432133675
20
10.000000149011612
30
0
11
-153.50000432133675
21
10.000000149011612
31
0
0
LINE
5
439
100
AcDbEntity
8
0
100
AcDbLine
10
-160.00000432133675
20
10.000000149011612
30
0
11
-158.50000432133675
21
10.000000149011612
31
0
0
LINE
5
440
100
AcDbEntity
8
0
100
AcDbLine
10
-165.00000432133675
20
10.000000149011612
30
0
11
-163.50000432133675
21
10.000000149011612
31
0
0
LINE
5
441
100
AcDbEntity
8
0
100
AcDbLine
10
-170.00000432133675
20
10.000000149011612
30
0
11
-168.50000432133675
21
10.000000149011612
31
0
0
LINE
5
442
100
AcDbEntity
8
0
100
AcDbLine
10
-175.00000432133675
20
10.000000149011612
30
0
11
-173.50000432133675
21
10.000000149011612
31
0
0
LINE
5
443
100
AcDbEntity
8
0
100
AcDbLine
10
-180.00000432133675
20
10.000000149011612
30
0
11
-178.50000432133675
21
10.000000149011612
31
0
0
LINE
5
444
100
AcDbEntity
8
0
100
AcDbLine
10
-185.00000432133675
20
10.000000149011612
30
0
11
-183.50000432133675
21
10.000000149011612
31
0
0
LINE
5
445
100
AcDbEntity
8
0
100
AcDbLine
10
-190.00000432133675
20
10.000000149011612
30
0
11
-188.50000432133675
21
10.000000149011612
31
0
0
LINE
5
446
100
AcDbEntity
8
0
100
AcDbLine
10
-195.00000432133675
20
10.000000149011612
30
0
11
-193.50000432133675
21
10.000000149011612
31
0
0
LINE
5
447
100
AcDbEntity
8
0
100
AcDbLine
10
-200.00000432133675
20
10.000000149011612
30
0
11
-198.50000432133675
21
10.000000149011612
31
0
0
LINE
5
448
100
AcDbEntity
8
0
100
AcDbLine
10
-205.00000432133675
20
10.000000149011612
30
0
11
-203.50000432133675
21
10.000000149011612
31
0
0
LINE
5
449
100
AcDbEntity
8
0
100
AcDbLine
10
-210.00000432133675
20
10.000000149011612
30
0
11
-208.50000432133675
21
10.000000149011612
31
0
0
LINE
5
450
100
AcDbEntity
8
0
100
AcDbLine
10
-215.00000432133675
20
10.000000149011612
30
0
11
-213.50000432133675
21
10.000000149011612
31
0
0
LINE
5
451
100
AcDbEntity
8
0
100
AcDbLine
10
-220.00000432133675
20
10.000000149011612
30
0
11
-218.50000432133675
21
10.000000149011612
31
0
0
LINE
5
452
100
AcDbEntity
8
0
100
AcDbLine
10
-235.00000432133675
20
10.000000149011612
30
0
11
-233.50000432133675
21
10.000000149011612
31
0
0
LINE
5
453
100
AcDbEntity
8
0
100
AcDbLine
10
-240.00000432133675
20
10.000000149011612
30
0
11
-238.50000432133675
21
10.000000149011612
31
0
0
LINE
5
454
100
AcDbEntity
8
0
100
AcDbLine
10
-245.00000432133675
20
10.000000149011612
30
0
11
-243.50000432133675
21
10.000000149011612
31
0
0
LINE
5
455
100
AcDbEntity
8
0
100
AcDbLine
10
-250.00000432133675
20
10.000000149011612
30
0
11
-248.50000432133675
21
10.000000149011612
31
0
0
LINE
5
456
100
AcDbEntity
8
0
100
AcDbLine
10
-255.00000432133675
20
10.000000149011612
30
0
11
-253.50000432133675
21
10.000000149011612
31
0
0
LINE
5
457
100
AcDbEntity
8
0
100
AcDbLine
10
-260.00000432133675
20
10.000000149011612
30
0
11
-258.50000432133675
21
10.000000149011612
31
0
0
LINE
5
458
100
AcDbEntity
8
0
100
AcDbLine
10
-265.00000432133675
20
10.000000149011612
30
0
11
-263.50000432133675
21
10.000000149011612
31
0
0
LINE
5
459
100
AcDbEntity
8
0
100
AcDbLine
10
-270.00000432133675
20
10.000000149011612
30
0
11
-268.50000432133675
21
10.000000149011612
31
0
0
LINE
5
460
100
AcDbEntity
8
0
100
AcDbLine
10
-275.00000432133675
20
10.000000149011612
30
0
11
-273.50000432133675
21
10.000000149011612
31
0
0
LINE
5
461
100
AcDbEntity
8
0
100
AcDbLine
10
-280.00000432133675
20
10.000000149011612
30
0
11
-278.50000432133675
21
10.000000149011612
31
0
0
LINE
5
462
100
AcDbEntity
8
0
100
AcDbLine
10
-290.00000432133675
20
10.000000149011612
30
0
11
-288.50000432133675
21
10.000000149011612
31
0
0
LINE
5
463
100
AcDbEntity
8
0
100
AcDbLine
10
-285.00000432133675
20
10.000000149011612
30
0
11
-283.50000432133675
21
10.000000149011612
31
0
0
LINE
5
464
100
AcDbEntity
8
0
100
AcDbLine
10
-290.00000432133675
20
30.000000447034836
30
0
11
-290.00000432133675
21
10.000000149011612
31
0
0
LINE
5
465
100
AcDbEntity
8
0
100
AcDbLine
10
-290.00000432133675
20
55.000000447034836
30
0
11
-290.00000432133675
21
35.000000149011612
31
0
0
LINE
5
466
100
AcDbEntity
8
0
100
AcDbLine
10
-290.00000432133675
20
80.000000447034836
30
0
11
-290.00000432133675
21
60.000000149011612
31
0
0
LINE
5
467
100
AcDbEntity
8
0
100
AcDbLine
10
-290.00000432133675
20
105.00000044703484
30
0
11
-290.00000432133675
21
85.000000149011612
31
0
0
LINE
5
468
100
AcDbEntity
8
0
100
AcDbLine
10
-290.00000432133675
20
149.66629575968906
30
0
11
-290.00000432133675
21
135.00000014901161
31
0
0
LINE
5
469
100
AcDbEntity
8
0
100
AcDbLine
10
-290.00000432133675
20
130.00000044703484
30
0
11
-290.00000432133675
21
110.00000014901161
31
0
0
ARC
5
470
100
AcDbEntity
8
0
100
AcDbCircle
10
-300
20
0
30
0
40
150.00000000000003
210
0
220
-0
230
1
100
AcDbArc
50
85.603010608246549
51
86.177447925035054
0
ARC
5
471
100
AcDbEntity
8
0
100
AcDbCircle
10
-300
20
0
30
0
40
150.00000000000006
210
0
220
-0
230
1
100
AcDbArc
50
81.759223563042838
51
82.33774600473383
0
ARC
5
472
100
AcDbEntity
8
0
100
AcDbCircle
10
-300
20
0
30
0
40
150.00000000000006
210
0
220
-0
230
1
100
AcDbArc
50
77.877649443486163
51
78.463042651850728
0
ARC
5
473
100
AcDbEntity
8
0
100
AcDbCircle
10
-300
20
0
30
0
40
150.00000000000006
210
0
220
-0
230
1
100
AcDbArc
50
73.938640450706501
51
74.53399175922543
0
ARC
5
474
100
AcDbEntity
8
0
100
AcDbCircle
10
-300
20
0
30
0
40
150.00000000000003
210
0
220
-0
230
1
100
AcDbArc
50
69.919912361520275
51
70.528781116265776
0
ARC
5
475
100
AcDbEntity
8
0
100
AcDbCircle
10
-300
20
0
30
0
40
149.99999999999997
210
0
220
-0
230
1
100
AcDbArc
50
65.79516700827223
51
66.421823322782089
0
ARC
5
476
100
AcDbEntity
8
0
100
AcDbCircle
10
-300
20
0
30
0
40
150.00000000000003
210
0
220
-0
230
1
100
AcDbArc
50
59.336172176560964
51
60.000001905982238
0
ARC
5
477
100
AcDbEntity
8
0
100
AcDbCircle
10
-300
20
0
30
0
40
150.00000000000003
210
0
220
-0
230
1
100
AcDbArc
50
57.08915907763366
51
57.769049315814769
0
LINE
5
478
100
AcDbEntity
8
0
100
AcDbLine
10
-230.00000432133675
20
10.000000149011612
30
0
11
-228.50000432133675
21
10.000000149011612
31
0
0
LINE
5
479
100
AcDbEntity
8
0
100
AcDbLine
10
-225.00000432133675
20
10.000000149011612
30
0
11
-223.50000432133675
21
10.000000149011612
31
0
0
LINE
5
480
100
AcDbEntity
8
0
100
AcDbLine
10
-223.50000432133675
20
105.00000044703484
30
0
11
-223.50000432133675
21
104.9963994456094
31
0
0
LINE
5
481
100
AcDbEntity
8
0
100
AcDbLine
10
-193.50000432133675
20
75.003600554405793
30
0
11
-193.50000432133675
21
74.996399445594392
31
0
0
LINE
5
482
100
AcDbEntity
8
0
100
AcDbLine
10
-193.50000432133675
20
25.00360055482043
30
0
11
-193.50000432133675
21
24.996399445180245
31
0
0
LINE
5
483
100
AcDbEntity
8
0
100
AcDbLine
10
-243.50000432133675
20
25.003600554568678
30
0
11
-243.50000432133675
21
24.996399445431624
31
0
0
LINE
5
484
100
AcDbEntity
8
0
100
AcDbLine
10
-273.50000432133675
20
55.000000447034836
30
0
11
-273.50000432133675
21
54.996399445653637
31
0
0
LINE
5
485
100
AcDbEntity
8
0
100
AcDbLine
10
-273.50000432133675
20
105.00000044703484
30
0
11
-273.50000432133675
21
104.99639944563883
31
0
0
LINE
5
486
100
AcDbEntity
8
0
100
AcDbLine
10
-305.79999996062355
20
128.20000000000005
30
0
11
-299.99999996062354
21
129.20000000000005
31
0
0
LINE
5
487
100
AcDbEntity
8
0
100
AcDbLine
10
-305.79999996062355
20
139.80000000000004
30
0
11
-305.79999996062355
21
128.20000000000005
31
0
0
LINE
5
488
100
AcDbEntity
8
0
100
AcDbLine
10
-300
20
138.80000000000001
30
0
11
-305.79999996062355
21
139.80000000000004
31
0
0
LINE
5
489
100
AcDbEntity
8
0
100
AcDbLine
10
-305.77072282702892
20
34.199989285587847
30
0
11
-299.97072282702891
21
35.199989285587847
31
0
0
LINE
5
490
100
AcDbEntity
8
0
100
AcDbLine
10
-305.77072282702892
20
45.799989285587841
30
0
11
-305.77072282702892
21
34.199989285587847
31
0
0
LINE
5
491
100
AcDbEntity
8
0
100
AcDbLine
10
-299.97072282702891
20
44.799989285587849
30
0
11
-305.77072282702892
21
45.799989285587841
31
0
0
LINE
5
492
100
AcDbEntity
8
0
100
AcDbLine
10
-218.79999467608167
20
-5.7900429303695278
30
0
11
-207.19999467608164
21
-5.7900429303695278
31
0
0
LINE
5
493
100
AcDbEntity
8
0
100
AcDbLine
10
-207.19999467608164
20
-5.7900429303695278
30
0
11
-208.19999467608167
21
0.0099570696304729367
31
0
0
LINE
5
494
100
AcDbEntity
8
0
100
AcDbLine
10
-217.79999467608167
20
0.0099570696304729367
30
0
11
-218.79999467608167
21
-5.7900429303695278
31
0
0
LINE
5
495
100
AcDbEntity
8
0
100
AcDbLine
10
-300
20
35.194941497144555
30
0
11
-300
21
0
31
0
0
LINE
5
496
100
AcDbEntity
8
0
100
AcDbLine
10
-300
20
160
30
0
11
-300
21
138.80000000000001
31
0
0
LINE
5
497
100
AcDbEntity
8
0
100
AcDbLine
10
-255.00000000001
20
-1.0048892598035764e-05
30
0
11
-253.99998794134095
21
5.9999879413167791
31
0
0
LINE
5
498
100
AcDbEntity
8
0
100
AcDbLine
10
-253.99998794134095
20
5.9999879413167791
30
0
11
-265.9999879413167
21
6.0000120586590269
31
0
0
LINE
5
499
100
AcDbEntity
8
0
100
AcDbLine
10
-265.9999879413167
20
6.0000120586590269
30
0
11
-264.99999999998988
21
1.0048892613578886e-05
31
0
0
LINE
5
500
100
AcDbEntity
8
0
100
AcDbLine
10
-160.99999987095617
20
0.0025748997785837724
30
0
11
-159.99998094701479
21
6.0025717457636247
31
0
0
LINE
5
501
100
AcDbEntity
8
0
100
AcDbLine
10
-159.99998094701479
20
6.0025717457636247
30
0
11
-171.99998094695508
21
6.0026095936562864
31
0
0
LINE
5
502
100
AcDbEntity
8
0
100
AcDbLine
10
-171.99998094695508
20
6.0026095936562864
30
0
11
-170.99999987090652
21
0.0026064396891133101
31
0
0
LINE
5
503
100
AcDbEntity
8
0
100
AcDbLine
10
-300
20
0
30
0
11
-264.99999999998988
21
1.0048892613578886e-05
31
0
0
LINE
5
504
100
AcDbEntity
8
0
100
AcDbLine
10
-255.00000000001
20
-1.0048892598035764e-05
30
0
11
-217.79999467608167
21
0.0099570696304729367
31
0
0
LINE
5
505
100
AcDbEntity
8
0
100
AcDbLine
10
-208.19999467608167
20
0.0099570696304729367
30
0
11
-170.99999987090652
21
0.0026064396891133101
31
0
0
LINE
5
506
100
AcDbEntity
8
0
100
AcDbLine
10
-160.99999987095617
20
0.0025748997785837724
30
0
11
-140
21
0
31
0
0
LINE
5
507
100
AcDbEntity
8
0
100
AcDbLine
10
-293.94396484836091
20
81.196281192766349
30
0
11
-293.96604091968402
21
93.196260886377303
31
0
0
LINE
5
508
100
AcDbEntity
8
0
100
AcDbLine
10
-293.96604091968402
20
93.196260886377303
30
0
11
-299.96385020644442
21
91.999948380369915
31
0
0
LINE
5
509
100
AcDbEntity
8
0
100
AcDbLine
10
-300.00687258120809
20
82.000040905217887
30
0
11
-293.94396484836091
21
81.196281192766349
31
0
0
LINE
5
510
100
AcDbEntity
8
0
100
AcDbLine
10
-299.98362591371324
20
81.996959094376564
30
0
11
-299.97072282702891
21
44.799989285587849
31
0
0
LINE
5
511
100
AcDbEntity
8
0
100
AcDbLine
10
-299.99999996062354
20
129.20000000000005
30
0
11
-299.96385020644442
21
91.999948380369915
31
0
0
ENDSEC
0
SECTION
2
OBJECTS
0
DICTIONARY
5
C
100
AcDbDictionary
3
ACAD_GROUP
350
D
3
ACAD_MLINESTYLE
350
17
0
DICTIONARY
5
D
100
AcDbDictionary
0
DICTIONARY
5
1A
330
C
100
AcDbDictionary
0
DICTIONARY
5
17
100
AcDbDictionary
0
ENDSEC
0
EOF
